<?xml version="1.0" encoding="utf-8"?>
<!-- Generator: Adobe Illustrator 22.1.0, SVG Export Plug-In . SVG Version: 6.00 Build 0)  -->
<svg version="1.1" id="Layer_1" xmlns="http://www.w3.org/2000/svg" xmlns:xlink="http://www.w3.org/1999/xlink" x="0px" y="0px"
	 viewBox="0 0 506.2 442.2" style="enable-background:new 0 0 506.2 442.2;" xml:space="preserve">
<style type="text/css">
	.st0{fill:#16B8EA;}
	.st1{fill:#64B85A;}
	.st2{fill:#14B7EA;}
	.st3{fill:#65B95B;}
	.st4{fill:#17B8EA;}
	.st5{fill:#66BA5D;}
	.st6{fill:#69BB5F;}
</style>
<g>
	<path class="st2" d="M252.8,154.1c-73.3,0-146.6,0-220,0c-6.1,0-6.7,0.5-6.7,6.5c0,46.3,0,92.6,0,139c0,12.4,7.9,20.3,20.3,20.4
		c55.8,0,111.6,0,167.5-0.1c4,0,5.7,0.7,5.3,5.1c-0.4,5.5-0.3,11,0,16.5c0.2,3.7-0.8,4.8-4.6,4.8c-23.8-0.2-47.7-0.1-71.5-0.1
		c-32.2,0-64.3,0-96.5,0C19.9,346.2,0,326.6,0,300c0-84.5,0-169,0-253.5C0,19.7,19.6,0,46.3,0c138,0,276,0,413.9,0
		c26,0,45.8,19.8,45.9,45.9c0,51.3-0.1,102.6,0.1,154c0,4.6-1.3,5.6-5.6,5.3c-5.3-0.4-10.7-0.3-16,0c-3.6,0.2-4.9-0.7-4.8-4.6
		c0.3-12.5,0.1-25,0.1-37.5c0-9,0-9-9.2-9C398.1,154.1,325.4,154.1,252.8,154.1z M253,90.1c-4.8,0-9.7,0-14.5,0
		c-68.6,0-137.3,0-205.9,0c-6,0-6.5,0.5-6.5,6.7c0,8,0,16,0,24c0,6.8,0.3,7.2,7,7.2c26.5,0,53,0,79.5,0c120.3,0,240.6,0,360.9,0
		c5.9,0,6.5-0.6,6.5-6.7c0-7.8-0.2-15.7,0-23.5c0.3-6.9-1.3-7.7-7.5-7.7C399.3,90.2,326.2,90.1,253,90.1z M253,64
		C253,64,253,64,253,64c34.3,0,68.6,0,103,0c39,0,78,0,117,0c6.5,0,6.9-0.4,6.9-6.7c0-3.3,0-6.7,0-10c0-13.4-7.6-21.1-21-21.1
		c-38.8,0-77.6,0-116.5,0c-98.3,0-196.6,0-294.9,0c-14.1,0-21.4,7.4-21.4,21.6c0,3.2,0,6.3,0,9.5c0,6.1,0.5,6.7,6.5,6.7
		C106.1,64,179.6,64,253,64z"/>
	<path class="st3" d="M381.1,442.1c-29.5,0-59-0.1-88.5,0.1c-3.6,0-4.8-0.8-4.8-4.6c0.1-48.5,0.1-96.9,0-145.4
		c0-3.2,0.8-4.3,4.1-4.2c9.3,0.2,18.7,0.2,28,0c4.6-0.1,5.9-2.4,3.7-6.4c-18.8-34.1-0.1-77.3,37.9-87.5c26.1-6.9,54.3,4.5,67.8,27.3
		c1.6,2.7,1.9,4.1-1.5,5.5c-5.4,2.2-10.7,4.6-15.9,7.2c-3.1,1.6-4.8,1.2-7-1.7c-9.2-11.9-21.3-16.6-36.2-13.3
		c-22.2,5-33.4,31.6-21.7,51.1c2.8,4.7,5.9,9.3,8.4,14.2c1.6,3.2,3.7,3.7,6.8,3.7c35.1-0.1,70.3,0,105.4-0.2c4.8,0,6.4,0.8,6.4,6.1
		c-0.2,47.6-0.2,95.3,0,142.9c0,4-0.8,5.3-5.1,5.3C439.7,442,410.4,442.1,381.1,442.1z M381,415.9c20,0,40,0,60,0
		c6.5,0,6.9-0.4,6.9-6.7c0-29.5,0-59,0-88.4c0-6.1-0.5-6.7-6.5-6.7c-40.1,0-80.3,0-120.4,0c-6.5,0-7,0.5-7,6.7c0,29.5,0,59,0,88.4
		c0,6.1,0.5,6.7,6.5,6.7C340.7,415.9,360.9,415.9,381,415.9z"/>
	<path class="st3" d="M125.1,250.1c-13.6,0-27.3-0.1-40.9,0.1c-3.2,0-4.3-0.8-4.2-4.1c0.2-6.1,0.1-12.3,0-18.5
		c0-2.3,0.2-3.7,3.2-3.7c28,0.1,55.9,0.1,83.9,0c2.9,0,3.2,1.3,3.2,3.6c-0.1,6.2-0.2,12.3,0,18.5c0.1,3.3-1,4.2-4.2,4.2
		C152.4,250,138.7,250.1,125.1,250.1z"/>
	<path class="st3" d="M237,224c8.5,0,17,0.1,25.4-0.1c2.8-0.1,3.8,0.7,3.7,3.6c-0.2,6.5-0.1,13,0,19.5c0,2.4-0.8,3.2-3.2,3.1
		c-17.3-0.1-34.6-0.1-51.9,0c-2.3,0-3.2-0.7-3.2-3.1c0.1-6.5,0.2-13,0-19.5c-0.1-2.8,0.9-3.7,3.7-3.7C220.1,224.1,228.6,224,237,224
		z"/>
</g>
</svg>
