<?xml version="1.0" encoding="utf-8"?>
<!-- Generator: Adobe Illustrator 22.1.0, SVG Export Plug-In . SVG Version: 6.00 Build 0)  -->
<svg version="1.1" id="Layer_1" xmlns="http://www.w3.org/2000/svg" xmlns:xlink="http://www.w3.org/1999/xlink" x="0px" y="0px"
	 viewBox="0 0 511.3 595.2" style="enable-background:new 0 0 511.3 595.2;" xml:space="preserve">
<style type="text/css">
	.st0{fill:#16B8EA;}
	.st1{fill:#64B85A;}
	.st2{fill:#14B7EA;}
	.st3{fill:#65B95B;}
	.st4{fill:#17B8EA;}
	.st5{fill:#66BA5D;}
	.st6{fill:#69BB5F;}
</style>
<g>
	<path d="M141.7,440c-18.8,6.4-36.7,12.4-54.6,18.6c-8,2.8-16.1,5.4-23.7,9.1C50.4,474,42.5,484.8,40,498.9
		c-2.7,15.5-4.6,31.2-6.8,46.9c-0.1,1,0,1.9,0,3.5c22.7,0,45.1,0,67.9,0c0,15.6,0,30.6,0,45.9c-5.7,0-11.3,0-17.3,0
		c0-9.1,0-18,0-27.2c-1.5-0.2-2.6-0.5-3.7-0.5c-15.3,0-30.7,0-46-0.1c-3,0-4.4,0.6-4.7,4c-0.6,7.8-1.8,15.5-2.7,23.6
		c-5.3,0-11,0-17.7,0c0.6-6.1,0.9-12,1.8-17.9c3.6-25.3,7.1-50.7,11-76c4.3-27.9,20.8-45.9,47-55.1c40.5-14.1,81.2-27.7,121.8-41.5
		c4.5-1.5,7.2-7.7,4.7-11.8c-0.6-1.1-3.1-1.4-4.7-1.5c-23.2-0.1-46.3-0.1-69.5-0.1c-2.3,0-4.6,0-7.4,0c1.9-10.2,4.1-19.6,5.4-29.1
		c2.8-21.3,6.2-42.5,7.5-63.9c2.1-37.1,2.6-74.2,4.1-111.3c1.4-37,15.7-68.3,42.7-93.7c2.5-2.4,3.6-4.7,3.5-8.2
		c0-8.3-0.5-16.8,0.9-24.9c2.3-13.4,14.1-22.6,27.6-23.1c1.2,0,2.4-0.2,3.5,0c4.4,0.6,6.6-0.9,8.3-5.5C223.8,13.3,237.7,2,257,0.2
		c18.3-1.7,32.2,7.7,42.2,22.7c2,3,3.8,6.4,4.7,9.9c1,3.7,2.9,4.7,6.4,4.4c8.4-0.6,16.3,1.2,22.8,7c6.8,6.1,10.6,13.5,10.3,22.8
		c-0.2,6-0.3,12,0.1,18c0.2,2.3,1.4,5.1,3.1,6.7c23.2,21.5,38,47.6,42.4,78.9c2.1,14.9,2,30.2,2,45.3c0,34.9,1.3,69.6,5.5,104.2
		c2.7,22.9,7,45.6,10.5,68.4c0.1,0.6,0.1,1.3,0.2,2.8c-2.1,0-4,0-5.9,0c-22.7,0-45.3-0.1-68,0.1c-2.1,0-5.2-1.5-5.9,2.6
		c-1,6.1,0,8.5,4.3,9.8c38.8,11.9,77.3,24.4,116.3,35.4c28.4,8,49.3,32.2,52.5,63.5c2.8,27.6,7.1,55.1,10.6,82.7
		c0.4,3.1,0.1,6.3,0.1,9.7c-5.8,0-11.4,0-17.2,0c-1.1-9.1-2.2-18.2-3.4-27.5c-18.2,0-35.8,0-53.9,0c0,9.1,0,18,0,27.4
		c-6.2,0-11.9,0-17.9,0c0-15,0-29.9,0-45.3c1.9-0.1,3.6-0.2,5.4-0.2c19.7,0,39.3-0.1,59,0.1c4.2,0,5.3-1,4.6-5.5
		c-2.4-15.6-3.9-31.4-6.3-47c-2.8-18.7-13.1-32.1-31.1-38.1c-23.2-7.7-46.7-14.4-70-21.5c-0.3-0.1-0.6,0.1-1.7,0.2
		c-1.1,6.4-2.3,13-3.4,19.6c-4.2,24.7-8.5,49.5-12.6,74.3c-1.1,6.8-0.9,13.4,3.2,19.6c3.8,5.7,6.4,12.1,10.2,17.7
		c5.6,8.1,4.5,17,4.2,26.2c-5.9,0-11.5,0-17,0c-0.2-0.3-0.6-0.6-0.5-0.9c2.1-12.7-4.7-22.7-11.2-32.1c-8.1-11.8-8.2-24-5.8-37.1
		c5.3-29.9,10.3-59.9,15.2-90c0.2-1.3-1.3-3.6-2.6-4.1c-4-1.7-8.2-2.6-12.3-4.1c-3.2-1.1-4.2,0.5-4.6,3.2
		c-4.7,28.9-9.8,57.7-14.1,86.6c-1.8,12.1-1.8,24.5-2.4,36.7c-0.1,3-0.5,4.6-4.1,4.6c-40.8-0.1-81.6-0.1-122.5-0.1
		c-0.8,0-1.6-0.2-2.6-0.4c-0.2-1-0.5-2-0.5-2.9c1.6-26.4-5.3-51.8-9.2-77.6c-2.3-15.1-5-30.2-7.6-45.2c-0.2-1.1-0.5-2.2-1-4
		c-5.9,2-11.5,3.7-17,6c-0.9,0.4-1.4,3.2-1.1,4.7c2.9,17.7,6.2,35.4,9,53.1c2.7,17.4,5.2,34.8,7.4,52.3c0.3,2.4-0.7,5.3-1.9,7.5
		c-4.7,9-9.9,17.7-14.6,26.7c-1.3,2.4-1.8,5.3-2.1,8c-0.4,2.9-0.1,5.9-0.1,9.2c-6,0-11.6,0-17.7,0c0.1-8.9-1.7-17.7,4.2-25.9
		c4.2-5.8,6.7-12.7,10.7-18.6c5.5-8.2,3.3-16.6,1.9-25.1c-4.1-24.9-8.4-49.8-12.7-74.7C143.3,447.5,142.5,444.1,141.7,440z
		 M175.7,221.6c0.6,15.3,0.8,29.9,1.7,44.4c1.1,17.1,6.6,33,16.4,47c5.2,7.5,11.5,14.2,17.1,21.5c1.2,1.6,2.3,3.8,2.4,5.7
		c0.2,24,0.1,48,0.2,72c0,2.7-1,3.9-3.4,4.6c-4.2,1.3-8.4,2.8-12.6,4.3c7.8,17.7,37.2,37.6,68.8,35.5c27.2-1.8,50.9-20.3,57-36.5
		c-2.5-0.8-4.9-2-7.5-2.4c-4.7-0.7-6.1-3-6-7.8c0.3-15.8,0.1-31.7,0.1-47.5c0-1.6-0.2-3.1-0.4-5.5c-19.9,11-39,22.1-62.6,15.3
		c0.3-1.5,0.4-2.4,0.7-3.4c1.1-3.5,2.5-6.9,3.5-10.4c0.7-2.5,2-2.8,4.5-2.4c3.6,0.5,7.5,1.2,10.8,0.3c36.4-9.6,60.9-32.3,73-67.9
		c6.5-19.1,6.4-39,6-58.8c-0.2-8.9,0.8-8.3-8-8.1c-20.4,0.4-39.5-4.4-57.5-14c-3.3-1.8-6.6-3.7-10.8-6.1c0,7.1,0,13.5,0,20.1
		C238,221.6,207.6,221.6,175.7,221.6z M385.8,373.6c-0.1-2-0.1-3.1-0.3-4.3c-3.3-27.4-7.8-54.7-9.5-82.2
		c-2.1-31.9-1.9-63.9-2.5-95.9c-0.7-34.8-13.2-64.2-39.9-87c-1.7-1.5-4.4-2.5-6.6-2.5c-44.3-0.1-88.6-0.1-133,0c-2,0-4.4,0.8-5.8,2
		c-25.4,22-39.1,49.6-39.8,83.3c-0.5,24,0.2,48-1.4,71.9c-2.2,32.7-6,65.3-9.1,97.9c-0.5,5.4-1.6,10.7-2.4,15.8
		c1,0.5,1.2,0.7,1.5,0.7c18.5,0.1,37,0.2,55.5,0.1c1,0,2.9-1.6,2.9-2.3c-0.5-13.7,4.3-28.7-9.5-39.1c-1.4-1.1-2.3-2.8-3.4-4.3
		c-17-22.6-23.5-48.6-24.2-76.3c-0.4-17.3-0.1-34.7-0.1-52c0-14.2,0-14.1,14.3-13.3c2.7,0.2,3.9,1,3.8,3.8c-0.2,4.4,0,8.9,0,13
		c1,0.4,1.3,0.6,1.6,0.6c23.3,0.1,46.7,0,70,0.2c3.5,0,3.6-2,3.6-4.5c0-10,0-20,0-30c0-2.4,0-4.8,0-7.1c4.9,3.3,8.5,6.9,12.1,10.6
		c21.3,22.3,47.3,32.5,78.1,31.1c3-0.1,4.1-1.1,4-4.1c-0.2-4.3,0-8.6,0-13.5c4.5,0,8.5,0.2,12.4-0.1c4-0.3,5.5,0.9,5.5,5.2
		c-0.2,20.3,0.3,40.7-0.2,61c-0.9,32.4-10.2,61.8-32.7,86.3c-1.7,1.8-2.7,4.9-2.8,7.5c-0.4,6.8-0.1,13.7-0.1,20.5
		c0,6.9,0,6.9,6.7,6.9c15.2,0,30.3,0,45.5,0C381.5,373.6,383.3,373.6,385.8,373.6z M200.5,452.8c4.8,29.7,9.5,58.1,14.1,86.7
		c30.3,0,61.2,0,91.2,0c4.7-29,9.3-57.4,14-86.6C279.9,479.5,240.6,481.8,200.5,452.8z M289.1,55.3c-0.6-6.3-0.2-12.3-1.9-17.4
		c-1.8-5.1-4.9-10.5-9-13.8c-4.1-3.3-10.1-5-15.5-6c-7.3-1.3-14.3,0.9-20.3,5.3c-10.8,7.9-10.8,19.8-10.8,31.8
		c-2.2,0.1-3.8,0.2-5.5,0.2c-7.7,0-15.3,0-23,0c-4.1,0-7.8,1.7-8.1,5.8c-0.6,7.4-0.2,14.8-0.2,22.2c43.7,0,86.9,0,130.7,0
		c0-6.3,0-12.2,0-18.2c0-7.4-2.5-9.8-9.9-9.9C306.9,55.3,298.1,55.3,289.1,55.3z"/>
	<path d="M37.4,298c5.9,0,11.5,0,17.4,0c1.4,23.4,14.1,35.8,37.4,37.5c0,5.9,0,11.5,0,17.4c-23.2,1.5-35.8,13.8-37.3,37.3
		c-5.8,0-11.4,0-17.4,0C35.7,367.4,23.7,354.4,0,353c0-5.8,0-11.5,0-17.5C23.2,333.8,35.8,321.3,37.4,298z M46.1,329.9
		c-4.6,4.5-9.9,9.7-14.4,14.2c4.6,4.5,10,9.8,14.4,14.2c4.5-4.4,9.9-9.7,14.3-14C55.8,339.7,50.6,334.4,46.1,329.9z"/>
	<path d="M390.9,110.7c0-6,0-11.6,0-17.6c10.2-0.4,19.5-3.1,26.8-10.4c7.4-7.3,9.8-16.7,10.6-26.8c6,0,11.6,0,17.6,0
		c0.5,10.1,3.1,19.4,10.4,26.7c7.2,7.2,16.2,10.1,26.7,10.3c0,5.8,0,11.5,0,17.7c-22.7,1.7-35.6,13.8-37.1,37.4
		c-5.7,0-11.3,0-17.5,0C426.8,125,414.3,112.3,390.9,110.7z M436.7,116.1c4.7-4.4,10.2-9.5,14.4-13.4c-4.6-4.9-9.8-10.4-13.7-14.7
		c-4.8,4.6-10.2,9.7-14.6,13.9C427.4,106.6,432.6,111.9,436.7,116.1z"/>
	<path d="M82.7,148.3c-6,0-11.5,0-17.4,0c0-5.9,0-11.6,0-17.4c5.9,0,11.5,0,17.4,0C82.7,136.7,82.7,142.3,82.7,148.3z"/>
	<path d="M456.2,279.7c6.1,0,11.4,0,17.2,0c0,5.8,0,11.5,0,17.4c-5.8,0-11.3,0-17.2,0C456.2,291.3,456.2,285.6,456.2,279.7z"/>
</g>
</svg>
