<?xml version="1.0" encoding="utf-8"?>
<!-- Generator: Adobe Illustrator 22.1.0, SVG Export Plug-In . SVG Version: 6.00 Build 0)  -->
<svg version="1.1" id="Layer_1" xmlns="http://www.w3.org/2000/svg" xmlns:xlink="http://www.w3.org/1999/xlink" x="0px" y="0px"
	 viewBox="0 0 507.4 486.6" style="enable-background:new 0 0 507.4 486.6;" xml:space="preserve">
<style type="text/css">
	.st0{fill:#16B8EA;}
	.st1{fill:#64B85A;}
	.st2{fill:#14B7EA;}
	.st3{fill:#65B95B;}
	.st4{fill:#17B8EA;}
	.st5{fill:#66BA5D;}
	.st6{fill:#69BB5F;}
</style>
<g>
	<path d="M246.1,44.3c-4.5,4.4-8.7,8.1-12.5,12.3c-0.9,1-1.1,3.3-0.6,4.7c7.7,21,4.3,39.5-11.7,55.4c-13.3,13.1-26.3,26.5-39.7,39.5
		c-3.2,3.1-4.1,5.2-1.6,9.5c6.5,11.1,9.6,23.2,9.8,36.1c0.2,11.8-3.9,21.7-12.1,30.1c-5.7,5.8-5.4,8.1,1.1,12.8
		c7,5,11.1,11.6,11.1,20.6c-0.1,67.8-0.2,135.6,0.1,203.5c0,10.7-9.3,17.9-17.9,17.8c-34.7-0.3-69.3-0.1-104-0.1c-1.3,0-2.6,0-4.4,0
		c0-5.1,0-10,0-15.5c36.8,0,73.5,0,110.7,0c0-5.6,0-10.6,0-16.3c-26.3,0-52.5,0-79,0c0-5.3,0-10,0-15.2c2.1-0.1,4-0.3,6-0.3
		c22.8,0,45.7,0,68.5,0c3.3,0,5.1-0.5,5.1-4.6c-0.1-45.2-0.1-90.3-0.1-135.5c0-1-0.2-1.9-0.3-3.5c-26.4,0-52.6,0-79.1,0
		c0-5.3,0-10,0-15.4c2,0,3.8,0,5.6,0c22.7,0,45.3-0.1,68,0.1c4.4,0,6.5-0.9,6-5.8c-0.4-3.5,0.1-7-0.2-10.5c-0.4-6.4-3-8.1-9.3-8.1
		c-17.9,0.2-35.9,0.1-54.1,0.1c0-5.5,0-10.1,0-15.5c3.1,0,6.2,0,9.3,0c10.5,0,21,0,31.5,0c6.8,0,6.6,0,7-6.7c0.1-2.6,0.9-6,2.6-7.4
		c15.7-12.1,15.1-27.7,9.7-44.2c-6.1-18.7-18.7-31.6-37-38.7c-5.6-2.2-8.8-4.5-7.5-10.9c0.2-1.1-0.1-2.3-0.2-3.9
		c-10,0-19.9,0-30.5,0c0,4.4,0,8.9,0,13.2c-24,2.6-47.4,26-49.3,57.3c-0.5,8.2,1,15.9,7.7,21.2c6.8,5.4,9.5,11.7,8.3,20.3
		c-0.6,4.6-0.1,9.3-0.1,14.5c-2,0.1-3.8,0.2-5.5,0.2c-8.1,0.1-10.4,2.4-10.4,10.4c0,53.7,0,107.3,0,161c0,9,0,17.9,0,27.1
		c-5.1,0-9.7,0-15.1,0c0-2,0-3.9,0-5.8c0-60.8,0-121.6-0.1-182.5c0-10,4.6-17.1,12.7-22.2c3.7-2.3,4.7-6.5,1.6-9.5
		c-19.5-18.5-16.4-40.1-7.7-61.7c7.4-18.4,20.6-32.1,38.6-40.7c3.3-1.6,4.1-3.5,4.1-6.9c-0.2-14.1-0.1-28.3-0.1-42.8
		c20.4,0,40.5,0,61.1,0c0.1,1.7,0.3,3.4,0.3,5.2c0,12.7,0.1,25.3,0,38c0,3.3,0.9,5.2,4,7c7.5,4.5,14.5,9.8,22.3,15.2
		c-0.6,0.1-0.2,0.2,0,0c15.3-15.3,30.9-30.3,45.9-46c11.3-11.9,11.5-27.7,0.7-40.2c-7.1-8.2-15-15.6-22.7-23.3c-1.3-1.3-3-2.2-4.2-3
		c12.3-12.1,23.7-23.4,35.4-34.9c0.7,0.6,2,1.8,3.3,3.1c27.5,27.4,55,54.8,82.3,82.4c3.1,3.1,6.2,4.3,10.5,4.2
		c18.3-0.2,36.7-0.1,55-0.1c1.8,0,3.6,0,5.8,0c0,10.6,0,20.7,0,31.6c5.5,0,10.5,0,16,0c0,10.8,0,20.9,0,31.6c26.5,0,52.6,0,79,0
		c0,100.7,0,200.8,0,301.3c-4.7,0-9.4,0-14.6,0c0-95,0-189.9,0-285.3c-2.2-0.1-4-0.3-5.7-0.3c-54.2,0-108.3-0.1-162.5,0
		c-39.7,0.1-70.9,31.3-71,71c-0.1,73.8,0,147.6,0,221.5c0,7.7,2,9.7,9.7,9.7c61.2,0,122.3,0.1,183.5-0.1c5.1,0,7,1.2,6.3,6.3
		c-0.4,2.9-0.1,5.9-0.1,9.5c-2.4,0-4.2,0-6,0c-60.8,0-121.6-0.2-182.5,0.2c-12.6,0.1-26.6-10.4-26.5-26.4c0.3-72.7,0.5-145.3,0-218
		c-0.3-46.2,35.9-83.9,78-88.7c0.3,0,0.6-0.3,1.4-0.6c0-10,0-20.3,0-31.5c4.4,0,8.3-0.1,12.2,0c3,0.1,4.4-1,4-4c0-0.2,0-0.3,0-0.5
		c2-12-2.2-20.9-11.5-29.1c-14.2-12.6-27.1-26.6-40.5-40.1C248.6,46.6,247.3,45.5,246.1,44.3z M380.7,136.7c-12.6,0-24.5,0-36.5,0
		c-12.8,0-25.6,0-38.4,0c-2.1,0-4.6-0.5-4.7,2.9c0,4.3,0,8.6,0,12.9c26.9,0,53.1,0,79.6,0C380.7,147.3,380.7,142.4,380.7,136.7z
		 M365.1,120.6c0-4.5,0.2-8.6-0.2-12.7c-0.1-1.1-2.1-3-3.2-3c-13.8-0.2-27.6-0.2-41.5,0c-1.1,0-3.1,1.6-3.2,2.6
		c-0.4,4.2-0.2,8.5-0.2,13.1C333.1,120.6,348.7,120.6,365.1,120.6z M126.6,96.8c-8.4,0-16.2,0-23.9,0c-6.6,0-6.6,0-6.7,6.5
		c-0.1,10.2-0.1,10.3,10.3,10.3c6.8,0,13.5,0,20.4,0C126.6,107.6,126.6,102.7,126.6,96.8z M222.1,45.4c4.1-4,8.3-8,12.2-11.7
		c-4.1-4.1-8.1-8.1-11.3-11.3c-4,3.7-8.2,7.6-12.5,11.6C214.4,37.8,218.3,41.7,222.1,45.4z"/>
	<path d="M364.5,216.7c0,74.2,0,147.6,0,221.4c-42,0-83.9,0-126.6,0c0-1.6,0-3.3,0-5.1c0-60.6,0.2-121.2-0.1-181.8
		c-0.1-21.3,17.3-35.2,34.4-34.7c29,0.7,57.9,0.2,86.9,0.2C360.7,216.7,362.4,216.7,364.5,216.7z M253.6,423c1.7,0.2,2.8,0.4,4,0.4
		c29.2,0,58.3,0,87.5,0.1c3.7,0,4.5-1.5,4.4-4.8c-0.1-18.2-0.1-36.3-0.1-54.5c0-42.3,0-84.6,0.1-126.9c0-4.1-1.1-5.4-5.3-5.4
		c-24.3,0.2-48.6,0-73,0.1c-12.6,0.1-17.6,5.2-17.6,17.6c0,55.8,0,111.6,0,167.4C253.6,418.8,253.6,420.6,253.6,423z"/>
	<path d="M380.9,323.5c0-27.1-0.1-54.3,0-81.4c0.1-19,14.7-33.7,33-33.3c16.7,0.4,30.3,15.4,30.3,33.9c0.1,44.5,0.1,88.9,0,133.4
		c0,11.6,0.3,23.3-0.6,34.9c-1.2,14.7-15.3,27.3-29.5,27.5c-15.8,0.3-29.9-11.1-32.3-26.2c-0.5-3.1-0.8-6.3-0.8-9.4
		C380.9,376.4,380.9,349.9,380.9,323.5z M396.5,323.8c0,27.8,0,55.6,0,83.5c0,8,3.4,13.4,9.7,15.1c11.4,2.9,22.7-1,22.5-16.3
		c-0.3-20.2-0.1-40.3-0.1-60.5c0-35,0-70,0-105c0-8.4-3.6-14.4-10.3-15.8c-13.2-2.7-22.1,2.6-22,16.4
		C396.7,268.8,396.5,296.3,396.5,323.8z"/>
	<path d="M507.4,471.2c0,5.1,0,9.9,0,15c-23.4,0-46.6,0-70.2,0c0-4.8,0-9.7,0-15C460.3,471.2,483.6,471.2,507.4,471.2z"/>
	<path d="M0,486.1c0-5.2,0-9.9,0-15c15.4,0,30.7,0,46.3,0c0,4.9,0,9.7,0,15C31.1,486.1,15.7,486.1,0,486.1z"/>
	<path d="M79.2,255.4c0-4.9,0-9.5,0-14.4c5,0,9.9,0,15.1,0c0,4.7,0,9.4,0,14.4C89.2,255.4,84.3,255.4,79.2,255.4z"/>
	<path d="M63.6,280.6c5,0,9.6,0,14.6,0c0,4.8,0,9.5,0,14.6c-4.7,0-9.4,0-14.6,0C63.6,290.6,63.6,285.9,63.6,280.6z"/>
	<path d="M78.4,439.3c0,5.3,0,9.9,0,14.8c-4.9,0-9.6,0-15.1,0c0-4.2-0.1-8.4,0.1-12.6c0-0.8,1.7-2.1,2.6-2.1
		C69.9,439.2,73.9,439.3,78.4,439.3z"/>
</g>
</svg>
