
<svg version="1.1" id="Layer_1" xmlns="http://www.w3.org/2000/svg" xmlns:xlink="http://www.w3.org/1999/xlink" x="0px" y="0px"
	 viewBox="0 0 251.8 251.4" style="enable-background:new 0 0 251.8 251.4;" xml:space="preserve">

	<path fill="#14b8eb" d="M251.8,136c-2.1,4.8-1.9,9.9-2.9,14.9c-10.6,54.5-58.7,96.7-114.2,100.2C67.5,255.4,10.1,208.3,1.1,141.4
		C-7.9,75.5,40.6,11.3,106.4,1.9c3.1-0.4,6.3-0.8,9.4-1.3c6.3-0.5,12.7,0.6,19-0.7c0.7,0,1.3,0,2,0c0.8,1.6,2.3,1,3.5,1.2
		c55.7,7.5,97.8,46.9,109,101.9c0.9,4.6,0.6,9.5,2.5,14C251.8,123.3,251.8,129.7,251.8,136z M126,220c52.2-0.1,93.9-42.1,93.8-94.3
		c-0.1-52.2-42.1-93.9-94.3-93.8c-52.2,0.1-93.9,42-93.8,94.2C31.8,178.4,73.8,220.1,126,220z"/>
	<path fill="#14b8eb" d="M140.8,97c0,6.7,0.1,13.3-0.1,20c-0.1,2.5,0.7,4.3,2.5,6.1c7.8,7.7,15.7,15.3,23.3,23.3c8.7,9.3,5.8,20.8-5.8,25
		c-5.3,1.9-9.8-0.2-13.3-3.5c-11.1-10.6-21.8-21.4-32.5-32.4c-3.2-3.3-4.4-7.8-4.3-12.4c0-15.5-0.1-30.9,0-46.4
		c0-5.7,1.6-11,6.5-14.4c4.4-3.2,9.2-4.2,14.5-1.6c6.1,3,8.6,8.2,9,14.5C141.1,82.3,140.8,89.6,140.8,97C140.8,97,140.8,97,140.8,97
		z"/>
</svg>
