<?xml version="1.0" encoding="utf-8"?>
<!-- Generator: Adobe Illustrator 22.1.0, SVG Export Plug-In . SVG Version: 6.00 Build 0)  -->
<svg version="1.1" id="Layer_1" xmlns="http://www.w3.org/2000/svg" xmlns:xlink="http://www.w3.org/1999/xlink" x="0px" y="0px"
	 viewBox="0 0 427.9 447.9" style="enable-background:new 0 0 427.9 447.9;" xml:space="preserve">
<style type="text/css">
	.st0{fill:#16B8EA;}
	.st1{fill:#64B85A;}
	.st2{fill:#14B7EA;}
	.st3{fill:#65B95B;}
	.st4{fill:#17B8EA;}
	.st5{fill:#66BA5D;}
	.st6{fill:#69BB5F;}
</style>
<g>
	<path class="st4" d="M147,0c5.1,3.4,6.7,8.6,8.1,14.2c6.1,24.5,17.7,46.2,34.1,65.3c1.6,1.9,3.3,3.7,4.8,5.7
		c3.6,4.8,3.1,10.7-1,14.4c-4.2,3.7-10.1,3.5-14.4-0.9c-5.6-5.7-10.5-12-15.2-18.5c-7.8-10.9-14.3-22.4-19.9-35.6
		c-20.1,45.4-52.4,77.9-98.1,98.1c45.6,20.3,78.1,52.8,98.1,98.1c20-45.4,52.4-77.8,98-98c-7.6-3.8-14.7-6.8-21.3-10.8
		c-6.4-3.9-8.6-9.7-5.6-14.9c3.2-5.5,9.1-6.9,15.6-3.1c14.7,8.5,30.2,14.6,46.6,18.6c6.3,1.5,9.2,4.9,9.2,10.2
		c0,5.5-2.8,8.9-9.4,10.5c-25.7,6.1-48.8,17.5-69,34.6c-25.9,22-43.2,49.4-52.2,82.2c-0.6,2.2-1.1,4.5-1.8,6.8
		c-1.8,6-5.2,8.7-10.6,8.6c-5-0.1-8.5-3-9.9-8.9c-2.3-9.7-5.1-19.3-9.2-28.4c-21.6-48-57.8-79.2-108.6-93.3C9,152.8,3.2,151.2,0,145
		c0-1.7,0-3.3,0-5c3.7-6,9.9-7.4,16.2-9.2c58.4-17,96.4-54.8,114.6-112.7c2-6.4,2.8-13.3,8.2-18.1C141.6,0,144.3,0,147,0z"/>
	<path class="st5" d="M427.9,284c-3.9,6.3-10.6,7.5-17,9.6c-36.9,12.3-60.5,37.4-70.6,75c-1.9,6.9-5.1,10.1-10.5,10.1
		c-5.2,0.1-8.9-3.2-10.6-10.1c-2.6-10.6-6.6-20.6-12.3-29.8c-0.7-1.1-1.3-2.3-1.8-3.5c-2.1-5.1-0.3-10.3,4.3-13
		c4.6-2.7,10.5-1.4,13.6,3.3c2.3,3.5,4.2,7.2,6.7,11.5c12.9-24.4,31.2-43,56.2-56c-24.9-13.1-43.4-31.4-56.2-56.3
		c-12.8,24.9-31.2,43.5-56.2,56.2c7.4,4.3,14.1,8.1,20.3,12.9c5.8,4.5,7.1,10.7,3.3,15.6c-3.6,4.6-9.8,5.1-15.6,0.9
		c-12.2-9-25.5-15.5-40.3-19c-6-1.4-9.1-5.1-9-10.3c0-5,3.2-8.6,9.2-10.2c37.8-10,63.2-33.3,75.9-70.4c0.9-2.7,1.5-5.5,2.3-8.2
		c1.7-5.8,4.9-8.5,10.2-8.5c5.3,0,8.8,2.7,10.2,8.5c3.6,14.7,9.6,28.3,19,40.3c14.7,18.9,33.4,31.8,56.8,37.4
		c6,1.4,10.1,4.4,12.3,10.1C427.9,281.3,427.9,282.6,427.9,284z"/>
	<path class="st4" d="M167,447.9c-5.8-5.6-6.1-13.6-9.2-20.4c-8.6-19-23-31.4-43-37.4c-1-0.3-1.9-0.5-2.9-0.8
		c-5.7-1.8-8.6-5.2-8.6-10.2c0-5,3.3-8.9,9.2-10.3c9.5-2.3,18.1-6.4,25.8-12.5c11-8.8,18.4-20,22.4-33.5c0.5-1.6,0.8-3.2,1.3-4.8
		c1.6-4.6,4.9-7.2,9.7-7.2c4.8,0,8.3,2.5,9.7,7.2c1.8,5.7,3.3,11.5,6.1,16.8c9.5,17.6,23.9,29.1,43.4,34c4.6,1.1,7.9,3.6,8.9,8.3
		c0.8,4.1-0.5,7.5-3.8,10.2c-1.6,1.3-3.6,1.7-5.5,2.3c-25.5,7-41.7,23.3-48.4,48.7c-1.2,4.5-4.1,6.9-7.3,9.5
		C172.3,447.9,169.6,447.9,167,447.9z M171.8,409.6c8.1-12.8,18-22.6,30.3-30.4c-6.4-4.3-12-8.4-17-13.4c-5.1-5-9.1-10.9-13.6-17
		c-7.6,12.8-17.7,22.6-30.3,30.3C154,387,163.8,396.9,171.8,409.6z"/>
	<path class="st6" d="M61.2,295c6.1-0.1,10.7,4.2,10.7,10c0,5.5-4.4,10.3-9.9,10.5c-5.9,0.2-10.9-4.6-10.9-10.5
		C51.1,299.3,55.4,295,61.2,295z"/>
	<path class="st6" d="M264.2,358c5.8,0,10.4,4.4,10.5,10.2c0.1,5.5-4.4,10.2-9.9,10.3c-6,0.1-10.7-4.3-10.8-10
		C253.9,362.5,258.3,358,264.2,358z"/>
	<path class="st6" d="M317.9,97.6c0.1,5.6-4.2,10.1-10,10.3c-5.9,0.2-10.5-4.2-10.6-10.2c-0.1-5.5,4.1-9.7,9.7-9.9
		C313.3,87.6,317.7,91.6,317.9,97.6z"/>
	<path class="st6" d="M221.1,234.1c-5.7,0-10.1-4.2-10.3-9.9c-0.2-5.8,4.4-10.5,10.2-10.4c5.7,0,10.2,4.3,10.3,9.9
		C231.5,229.5,227,234.1,221.1,234.1z"/>
</g>
</svg>
