<?xml version="1.0" encoding="utf-8"?>
<!-- Generator: Adobe Illustrator 22.1.0, SVG Export Plug-In . SVG Version: 6.00 Build 0)  -->
<svg version="1.1" id="Layer_1" xmlns="http://www.w3.org/2000/svg" xmlns:xlink="http://www.w3.org/1999/xlink" x="0px" y="0px"
	 viewBox="0 0 511.1 503.7" style="enable-background:new 0 0 511.1 503.7;" xml:space="preserve">
<style type="text/css">
	.st0{fill:#16B8EA;}
	.st1{fill:#64B85A;}
	.st2{fill:#14B7EA;}
	.st3{fill:#65B95B;}
	.st4{fill:#17B8EA;}
	.st5{fill:#66BA5D;}
	.st6{fill:#69BB5F;}
</style>
<g>
	<path d="M0,503.7c0-5.4,0-10,0-15c50.5,0,100.7,0,151.3,0c0-32.4,0-64.3,0-96.9c-5,0-10.1,0-15.3,0c0-5.3,0-9.9,0-15.2
		c5.1,0,10.1,0,15.5,0c0-37.7,0-74.8,0-112.7c-5,0-10.1,0-15.4,0c0-7.7,0-14.6,0-22.1c69,0,138,0,207.3,0c0-35.5,0-70.4,0-106
		c-69.1,0-138.1,0-207.4,0c0-5.3,0-9.9,0-15.1c69.1,0,138.1,0,207.4,0c0-35.5,0-70.4,0-105.8c-69.1,0-138,0-207.3,0
		c0-5.2,0-9.9,0-15c79.5,0,159.1,0,239,0c0,4.8,0,9.5,0,14.7c-5.1,0-10.1,0-15.3,0c0,35.4,0,70.3,0,105.8c5,0,10.1,0,15.4,0
		c0,5.2,0,9.8,0,15.1c-5.1,0-10.1,0-15.4,0c0,35.6,0,70.5,0,105.8c5.1,0,10,0,15.3,0c0,7.5,0,14.5,0,22.3c-69.1,0-138.1,0-207.4,0
		c0,37.8,0,74.9,0,112.7c69.2,0,138.2,0,207.5,0c0,5.2,0,9.8,0,15.2c-5.1,0-10.1,0-15.4,0c0,32.5,0,64.3,0,96.7
		c50.3,0,100.7,0,151.4,0c0,5.4,0,10.1,0,15.4C340.8,503.7,170.6,503.7,0,503.7z M167.8,392c0,32.2,0,64.1,0,96.1
		c16.4,0,32.4,0,48.7,0c0-10.8,0-21.2,0-32.5c-5.6,0-11,0-16.3,0c0-5.5,0-10.2,0-14.7c37.3,0,74.2,0,111,0c0,5,0,9.6,0,14.9
		c-5,0-9.7,0-14.4,0c0,11.2,0,21.8,0,32.2c15.9,0,31.3,0,46.7,0c0-32.2,0-64,0-96.1C284.8,392,226.4,392,167.8,392z M280.4,456
		c-5.7,0-11.1,0-16.6,0c0,10.9,0,21.4,0,32.1c5.7,0,11.1,0,16.6,0C280.4,477.3,280.4,466.8,280.4,456z M247.5,488.3
		c0-11,0-21.5,0-32.1c-5.1,0-10,0-14.7,0c0,11,0,21.5,0,32.1C237.9,488.3,242.5,488.3,247.5,488.3z"/>
	<path d="M16.1,280.4c5.5,0,10.7,0,16.5,0c0-15.7,0-31.1,0-47c10.6,0,20.5,0,31,0c0-11.1,0-21.6,0-32.5c5.5,0,10.4,0,15.9,0
		c0,10.7,0,21.2,0,32.3c10.8,0,21.1,0,32,0c0,15.9,0,31.3,0,47.2c5.5,0,10.4,0,15.7,0c0,5.2,0,9.9,0,15.2c-31.7,0-63.2,0-95.4,0
		c0,59.1,0,117.6,0,176.5c-5.5,0-10.4,0-15.6,0C16.1,408.5,16.1,344.8,16.1,280.4z M48.5,280.2c15.9,0,31.3,0,46.8,0
		c0-10.7,0-21,0-31.3c-15.8,0-31.2,0-46.8,0C48.5,259.4,48.5,269.5,48.5,280.2z"/>
	<path d="M479.9,295.7c-32.5,0-64.1,0-95.9,0c0-5.2,0-9.8,0-15c5,0,10,0,15.7,0c0-16.1,0-31.4,0-47.4c10.8,0,21.1,0,31.9,0
		c0-11.1,0-21.6,0-32.5c5.5,0,10.4,0,15.7,0c0,10.6,0,21.1,0,32.2c10.4,0,20.5,0,31.1,0c0,16.1,0,31.5,0,47.4c5.9,0,11.1,0,16.7,0
		c0,64.1,0,127.7,0,191.7c-4.8,0-9.7,0-15.2,0C479.9,413.7,479.9,355.2,479.9,295.7z M462.6,248.9c-16,0-31.3,0-46.7,0
		c0,10.7,0,21,0,31.2c15.8,0,31.2,0,46.7,0C462.6,269.6,462.6,259.4,462.6,248.9z"/>
	<path d="M399.2,313.1c0,5.3,0,10.2,0,15.1c-22.3,4.1-29.6,11.4-32.1,32.1c-4.8,0-9.7,0-15,0c-1.5-19.6-12-30.5-32.1-31.9
		c0-5.1,0-10,0-15.5c8.6,0,16.6-2.4,22.9-8.8c6.3-6.3,8.8-14.2,9-23.2c5.2,0,10.1,0,15,0C368.8,303,381.7,312.6,399.2,313.1z
		 M347.9,321.1c3.4,3.6,7.8,8.2,11.5,12.2c4-4.1,8.4-8.7,11.5-11.9c-3.5-3.8-7.9-8.6-11.1-12.2C356,313.1,351.6,317.5,347.9,321.1z"
		/>
	<path d="M120,64.2c21.2-2.5,30.2-11.5,32-32c5,0,10,0,15,0c1.2,17.3,10.1,30.7,32.2,32.1c0,4.9,0,9.8,0,15.3
		c-8.5,0.6-16.6,2.7-22.9,9c-6.1,6.2-8.7,14-9,22.9c-5.1,0-10,0-15.2,0c-1.5-19.8-12.1-30.6-32.1-32C120,74.4,120,69.4,120,64.2z
		 M159.7,84.1c3.7-3.7,8.3-8.4,11.7-11.8c-3.8-3.7-8.4-8.3-11.8-11.6c-3.7,3.6-8.3,8-11.6,11.2C151.4,75.4,155.6,79.8,159.7,84.1z"
		/>
	<path d="M152,153.1c5.1,0,10,0,15.2,0c0.4,8.8,2.7,16.8,9.1,23.1c6.2,6.2,13.9,8.9,22.9,8.7c0,5.3,0,10.3,0,15.4
		c-22.5,4.5-29.8,11.8-32,32.1c-4.8,0-9.7,0-15.1,0c-0.6-8.5-2.8-16.5-9.2-22.8c-6.2-6.2-14-8.6-22.9-8.9c0-5.2,0-10.1,0-15.6
		c8.5-0.2,16.5-2.4,22.8-8.8C149.2,169.9,151.6,162,152,153.1z M159.8,181.2c-3.8,3.8-8.3,8.4-11.6,11.8c3.4,3.5,7.9,8.3,11.4,12
		c4-3.9,8.6-8.3,11.8-11.4C167.6,189.5,163.3,185,159.8,181.2z"/>
	<path d="M216.1,64.6c5.2,0,10,0,15.1,0c0,4.9,0,9.7,0,14.7c-5,0-9.9,0-15.1,0C216.1,74.4,216.1,69.7,216.1,64.6z"/>
	<path d="M280,79.1c0-4.7,0-9.3,0-14.3c5,0,10,0,15.2,0c0,4.8,0,9.3,0,14.3C290.2,79.1,285.2,79.1,280,79.1z"/>
	<path d="M312,64.6c5.2,0,10,0,15.1,0c0,4.9,0,9.6,0,14.7c-5,0-9.9,0-15.1,0C312,74.4,312,69.7,312,64.6z"/>
	<path d="M184.1,96.7c5.1,0,9.9,0,15.1,0c0,4.9,0,9.6,0,14.6c-5,0-9.9,0-15.1,0C184.1,106.4,184.1,101.7,184.1,96.7z"/>
	<path d="M231.3,96.7c0,4.9,0,9.5,0,14.5c-5,0-9.9,0-15.2,0c0-4.7,0-9.4,0-14.5C221,96.7,225.9,96.7,231.3,96.7z"/>
	<path d="M247.9,111.2c0-5,0-9.5,0-14.5c5.1,0,9.9,0,15.2,0c0,4.7,0,9.5,0,14.5C258.2,111.2,253.3,111.2,247.9,111.2z"/>
	<path d="M295.2,96.8c0,4.8,0,9.4,0,14.4c-4.9,0-9.8,0-15.1,0c0-4.5,0-9.2,0-14.4C284.9,96.8,289.8,96.8,295.2,96.8z"/>
	<path d="M311.9,111.2c0-4.9,0-9.5,0-14.5c5,0,9.9,0,15.2,0c0,4.7,0,9.4,0,14.5C322.2,111.2,317.3,111.2,311.9,111.2z"/>
	<path d="M184.1,153.5c5.2,0,9.9,0,15,0c0,4.9,0,9.6,0,14.7c-4.9,0-9.8,0-15,0C184.1,163.5,184.1,158.8,184.1,153.5z"/>
	<path d="M215.9,168.2c0-5,0-9.5,0-14.5c5.1,0,9.9,0,15.2,0c0,4.7,0,9.4,0,14.5C226.2,168.2,221.3,168.2,215.9,168.2z"/>
	<path d="M248,168.2c0-5.1,0-9.7,0-14.6c5.1,0,10,0,15.2,0c0,4.9,0,9.6,0,14.6C258.1,168.2,253.2,168.2,248,168.2z"/>
	<path d="M295.1,168.4c-5.1,0-9.9,0-15,0c0-4.9,0-9.6,0-14.7c4.9,0,9.8,0,15,0C295.1,158.4,295.1,163.1,295.1,168.4z"/>
	<path d="M327.2,153.7c0,4.9,0,9.5,0,14.5c-5,0-9.9,0-15.2,0c0-4.6,0-9.3,0-14.5C317,153.7,321.8,153.7,327.2,153.7z"/>
	<path d="M231.2,185.7c0,4.9,0,9.5,0,14.4c-5,0-9.9,0-15.1,0c0-4.6,0-9.3,0-14.4C221,185.7,225.8,185.7,231.2,185.7z"/>
	<path d="M263.2,200.3c-5.1,0-9.9,0-15.1,0c0-4.7,0-9.4,0-14.5c4.9,0,9.8,0,15.1,0C263.2,190.6,263.2,195.1,263.2,200.3z"/>
	<path d="M295.3,185.7c0,5,0,9.6,0,14.5c-5.1,0-9.9,0-15.2,0c0-4.7,0-9.4,0-14.5C285,185.7,289.9,185.7,295.3,185.7z"/>
	<path d="M312,200.1c0-4.8,0-9.3,0-14.4c4.9,0,9.8,0,15.1,0c0,4.6,0,9.3,0,14.4C322.3,200.1,317.4,200.1,312,200.1z"/>
	<path d="M199.1,232.3c-5.2,0-9.9,0-15,0c0-4.9,0-9.6,0-14.7c5.1,0,9.9,0,15,0C199.1,222.7,199.1,227.5,199.1,232.3z"/>
	<path d="M216,232.1c0-5,0-9.6,0-14.5c5.1,0,10,0,15.2,0c0,4.8,0,9.4,0,14.5C226.3,232.1,221.3,232.1,216,232.1z"/>
	<path d="M263.2,217.7c0,4.8,0,9.4,0,14.4c-4.9,0-9.8,0-15.1,0c0-4.5,0-9.2,0-14.4C252.9,217.7,257.8,217.7,263.2,217.7z"/>
	<path d="M280.1,217.5c5.2,0,9.9,0,15,0c0,4.9,0,9.6,0,14.7c-4.9,0-9.8,0-15,0C280.1,227.5,280.1,222.8,280.1,217.5z"/>
	<path d="M327.2,217.7c0,4.9,0,9.5,0,14.4c-5,0-9.9,0-15.1,0c0-4.6,0-9.3,0-14.4C316.9,217.7,321.8,217.7,327.2,217.7z"/>
	<path d="M199.2,281.7c0,5.1,0,9.7,0,14.6c-5.1,0-10,0-15.2,0c0-4.8,0-9.5,0-14.6C189.1,281.7,194,281.7,199.2,281.7z"/>
	<path d="M215.9,296.2c0-4.9,0-9.5,0-14.4c5.1,0,9.9,0,15.2,0c0,4.7,0,9.4,0,14.4C226.2,296.2,221.4,296.2,215.9,296.2z"/>
	<path d="M263.3,281.7c0,5.1,0,9.6,0,14.5c-5.1,0-10,0-15.2,0c0-4.8,0-9.5,0-14.5C253,281.7,257.9,281.7,263.3,281.7z"/>
	<path d="M295.2,296.3c-5.1,0-9.9,0-15.1,0c0-4.7,0-9.4,0-14.5c4.9,0,9.8,0,15.1,0C295.2,286.6,295.2,291.1,295.2,296.3z"/>
	<path d="M311.9,296.2c0-5,0-9.6,0-14.5c5.1,0,10,0,15.2,0c0,4.8,0,9.5,0,14.5C322.1,296.2,317.3,296.2,311.9,296.2z"/>
	<path d="M184.1,32.6c5.1,0,9.8,0,15,0c0,4.8,0,9.5,0,14.6c-4.8,0-9.7,0-15,0C184.1,42.6,184.1,37.9,184.1,32.6z"/>
	<path d="M48,328.2c0-5,0-9.6,0-14.5c5.1,0,10,0,15.2,0c0,4.8,0,9.5,0,14.5C58.2,328.2,53.3,328.2,48,328.2z"/>
	<path d="M80,328.2c0-5.1,0-9.7,0-14.6c5.1,0,10,0,15.2,0c0,4.9,0,9.6,0,14.6C90.1,328.2,85.3,328.2,80,328.2z"/>
	<path d="M127.3,313.7c0,5,0,9.6,0,14.5c-5.1,0-9.9,0-15.2,0c0-4.7,0-9.4,0-14.5C117,313.7,121.9,313.7,127.3,313.7z"/>
	<path d="M184,328.2c0-5,0-9.6,0-14.5c5.1,0,10,0,15.2,0c0,4.8,0,9.5,0,14.5C194.2,328.2,189.3,328.2,184,328.2z"/>
	<path d="M231.1,328.3c-5.2,0-10,0-15.1,0c0-4.9,0-9.6,0-14.7c5,0,9.9,0,15.1,0C231.1,318.5,231.1,323.2,231.1,328.3z"/>
	<path d="M263.1,328.3c-5.1,0-9.9,0-15,0c0-4.9,0-9.6,0-14.7c4.9,0,9.8,0,15,0C263.1,318.4,263.1,323.1,263.1,328.3z"/>
	<path d="M295.1,328.3c-5.3,0-10,0-15.1,0c0-4.9,0-9.6,0-14.7c5.1,0,9.9,0,15.1,0C295.1,318.5,295.1,323.2,295.1,328.3z"/>
	<path d="M416,313.5c5.2,0,10,0,15.1,0c0,4.9,0,9.6,0,14.7c-5,0-9.9,0-15.1,0C416,323.4,416,318.7,416,313.5z"/>
	<path d="M463.2,313.7c0,4.8,0,9.4,0,14.4c-4.9,0-9.8,0-15.1,0c0-4.5,0-9.2,0-14.4C452.9,313.7,457.8,313.7,463.2,313.7z"/>
	<path d="M48.1,345.5c5.2,0,10,0,15.1,0c0,4.9,0,9.6,0,14.7c-5,0-9.9,0-15.1,0C48.1,355.4,48.1,350.7,48.1,345.5z"/>
	<path d="M95.2,360.3c-5.2,0-10,0-15.1,0c0-4.9,0-9.6,0-14.7c5,0,9.9,0,15.1,0C95.2,350.5,95.2,355.2,95.2,360.3z"/>
	<path d="M231.1,47.3c-5.2,0-10,0-15.1,0c0-4.9,0-9.6,0-14.7c5,0,9.9,0,15.1,0C231.1,37.5,231.1,42.2,231.1,47.3z"/>
	<path d="M199.1,360.3c-5,0-9.8,0-14.9,0c0-4.7,0-9.4,0-14.6c4.8,0,9.7,0,14.9,0C199.1,350.3,199.1,355,199.1,360.3z"/>
	<path d="M215.9,360.1c0-4.9,0-9.5,0-14.5c5,0,9.9,0,15.2,0c0,4.7,0,9.4,0,14.5C226.2,360.1,221.4,360.1,215.9,360.1z"/>
	<path d="M248.1,345.5c5.2,0,9.9,0,15,0c0,4.9,0,9.6,0,14.7c-5,0-9.9,0-15,0C248.1,355.3,248.1,350.5,248.1,345.5z"/>
	<path d="M280.1,345.5c5.2,0,9.9,0,15,0c0,4.9,0,9.6,0,14.7c-4.9,0-9.8,0-15,0C280.1,355.5,280.1,350.8,280.1,345.5z"/>
	<path d="M327,360.3c-5,0-9.7,0-14.9,0c0-4.7,0-9.4,0-14.5c4.7,0,9.6,0,14.9,0C327,350.3,327,355,327,360.3z"/>
	<path d="M399.2,345.7c0,4.8,0,9.4,0,14.4c-4.9,0-9.8,0-15.1,0c0-4.6,0-9.2,0-14.4C388.9,345.7,393.8,345.7,399.2,345.7z"/>
	<path d="M415.8,360.1c0-4.9,0-9.4,0-14.3c5.1,0,10.1,0,15.3,0c0,4.7,0,9.3,0,14.3C426.2,360.1,421.2,360.1,415.8,360.1z"/>
	<path d="M448,345.6c5.2,0,10,0,15.2,0c0,4.9,0,9.4,0,14.5c-4.9,0-9.9,0-15.2,0C448,355.3,448,350.6,448,345.6z"/>
	<path d="M247.9,79.2c0-5,0-9.5,0-14.5c5.1,0,9.9,0,15.2,0c0,4.7,0,9.4,0,14.5C258.2,79.2,253.3,79.2,247.9,79.2z"/>
	<path d="M248.1,32.6c5.2,0,10,0,15.1,0c0,4.9,0,9.7,0,14.7c-5,0-9.9,0-15.1,0C248.1,42.4,248.1,37.7,248.1,32.6z"/>
	<path d="M280,47.1c0-5.1,0-9.6,0-14.5c5.2,0,10,0,15.2,0c0,4.9,0,9.5,0,14.5C290.3,47.1,285.3,47.1,280,47.1z"/>
	<path d="M312.1,32.6c5.2,0,9.9,0,15,0c0,4.9,0,9.6,0,14.7c-5,0-9.9,0-15,0C312.1,42.3,312.1,37.5,312.1,32.6z"/>
	<path d="M127.1,360.3c-5.2,0-9.9,0-15,0c0-4.9,0-9.6,0-14.6c5.1,0,9.9,0,15,0C127.1,350.6,127.1,355.5,127.1,360.3z"/>
	<path d="M184.1,409.5c5.2,0,10,0,15.1,0c0,4.9,0,9.6,0,14.7c-5,0-9.9,0-15.1,0C184.1,419.4,184.1,414.7,184.1,409.5z"/>
	<path d="M231.2,424.3c-5.3,0-10,0-15.1,0c0-4.9,0-9.6,0-14.7c5.1,0,9.9,0,15.1,0C231.2,414.5,231.2,419.2,231.2,424.3z"/>
	<path d="M263.3,409.7c0,4.9,0,9.5,0,14.4c-5,0-9.9,0-15.2,0c0-4.6,0-9.3,0-14.4C253,409.7,257.9,409.7,263.3,409.7z"/>
	<path d="M280,424.1c0-4.8,0-9.4,0-14.4c5.1,0,10,0,15.3,0c0,4.8,0,9.4,0,14.4C290.3,424.1,285.4,424.1,280,424.1z"/>
	<path d="M327.2,409.6c0,5.2,0,9.8,0,14.6c-5.1,0-10,0-15.2,0c0-4.9,0-9.6,0-14.6C317.1,409.6,322,409.6,327.2,409.6z"/>
</g>
</svg>
