<?xml version="1.0" encoding="utf-8"?>
<!-- Generator: Adobe Illustrator 22.1.0, SVG Export Plug-In . SVG Version: 6.00 Build 0)  -->
<svg version="1.1" id="Layer_1" xmlns="http://www.w3.org/2000/svg" xmlns:xlink="http://www.w3.org/1999/xlink" x="0px" y="0px"
	 viewBox="0 0 511.1 471.2" style="enable-background:new 0 0 511.1 471.2;" xml:space="preserve">
<style type="text/css">
	.st0{fill:#16B8EA;}
	.st1{fill:#64B85A;}
	.st2{fill:#14B7EA;}
	.st3{fill:#65B95B;}
	.st4{fill:#17B8EA;}
	.st5{fill:#66BA5D;}
	.st6{fill:#69BB5F;}
</style>
<g>
	<path d="M351.7,279.7c0-11,0-21.3,0-31.8c37.3,0,74.2,0,111.5,0c0,10.5,0,20.7,0,31.6c5.5,0,10.5,0,15.8,0
		c0,14.7,0.8,28.9-0.2,42.9c-1.4,19.5-4.2,39-6.4,58.5c-2.2,19.8-4.4,39.7-6.6,59.5c-1.1,10.2-2.2,20.4-3.4,30.8
		c-68.7,0-137,0-205.8,0c-1.3-12-2.7-23.8-4-35.7c-2.2-19.7-4.5-39.3-6.6-59c-3.4-31.2-7.9-62.4-6.3-94c0-0.8,0.1-1.6,0.2-2.8
		C277,279.7,314,279.7,351.7,279.7z M464.1,295.7c-70.3,0-139.3,0-209.2,0c1.2,53.8,10.9,106.4,15.2,159.7c59.8,0,118.9,0,178.7,0
		C453.1,402.1,462.7,349.5,464.1,295.7z M367.6,279.3c26.9,0,53.3,0,79.7,0c0-5.4,0-10.5,0-15.5c-26.8,0-53.3,0-79.7,0
		C367.6,269.2,367.6,274.1,367.6,279.3z"/>
	<path d="M126.9,328c24.3,5.7,40.5,19.8,46.9,44c1.1,4.1,1.5,8.5,1.5,12.8c0.2,18,0.1,36,0.1,54c0,10.9,4.4,15.8,15.6,17
		c0,5,0,10.1,0,15.1c-16.4,0.2-31.2-14.7-31.3-31.8c-0.2-19,0-38-0.1-57c-0.1-19.9-14.3-35.9-34.1-38.7c-20.1-2.8-38.4,8.3-44.1,27
		c-1.2,3.9-1.8,8.1-1.9,12.2c-0.2,18.5,0,37-0.1,55.5c-0.1,17.7-13.2,31.6-31.3,33c0-5,0-10.1,0-15.1c12.2-2.2,15.6-6.2,15.6-18.8
		c0-17.5,0-35,0-52.5c0-25.1,17.4-48.3,41.6-54.8c4.7-1.3,5.7-3.3,5.7-7.7c0.1-105.3,0.4-210.6,0.7-316c0-2,0-3.9,0-6.2
		c5.3,0,10.2,0,15.3,0C126.9,109.3,126.9,218.5,126.9,328z"/>
	<path d="M352,175c-3.2-21.3-12.2-30.3-32.1-31.8c0-5,0-10,0-15c21.2-3.2,30.2-12.2,31.8-32.1c5,0,10,0,15.1,0
		c3.1,21.2,12.1,30.2,32.1,31.8c0,5,0,10,0,15.1c-21.4,3.2-30.2,12-31.8,32.1C362.1,175,357.1,175,352,175z M347.9,135.2
		c3.8,3.9,8.2,8.5,11.5,11.9c3.7-3.7,8.3-8.3,11.6-11.6c-3.7-3.7-8.2-8.2-11.7-11.7C355.7,127.4,351.3,131.8,347.9,135.2z"/>
	<path d="M167.9,247.1c0-5.2,0-10.2,0-15c21.3-3.1,30.3-12.1,32-32.1c5,0,10.1,0,15.1,0c3.1,21.2,12.1,30.2,32.1,31.9
		c0,5,0,10.1,0,15.1c-21.2,3-30.3,12.1-31.9,32.1c-5,0-10,0-15.1,0C197,257.7,188.1,248.8,167.9,247.1z M207.3,251.2
		c3.9-3.9,8.5-8.3,12-11.8c-3.9-3.8-8.4-8.3-11.6-11.5c-3.9,3.7-8.5,8.2-11.8,11.4C199.5,243.2,203.8,247.7,207.3,251.2z"/>
	<path d="M110.9,471.2c-5.1,0-9.9,0-15,0c0-23.7,0-47.2,0-71.2c4.8,0,9.7,0,15,0C110.9,423.5,110.9,447.1,110.9,471.2z"/>
	<path d="M142.9,471.2c-5.1,0-9.9,0-15,0c0-23.7,0-47.2,0-71.2c4.8,0,9.7,0,15,0C142.9,423.5,142.9,447.1,142.9,471.2z"/>
	<path d="M31.2,456c0,5.2,0,10,0,15c-10.4,0-20.6,0-31.2,0c0-4.9,0-9.7,0-15C10.2,456,20.5,456,31.2,456z"/>
	<path d="M239,471.2c-10.4,0-20.5,0-31,0c0-5,0-10,0-15.3c10.3,0,20.5,0,31,0C239,460.9,239,465.8,239,471.2z"/>
	<path d="M511.1,456c0,5.1,0,9.9,0,15c-10.4,0-20.6,0-31.2,0c0-4.8,0-9.7,0-15C490.1,456,500.4,456,511.1,456z"/>
	<path d="M95.9,367.8c5.1,0,9.9,0,15,0c0,5,0,10,0,15.3c-5,0-9.9,0-15,0C95.9,378.1,95.9,373.2,95.9,367.8z"/>
	<path d="M128,367.8c5.1,0,9.9,0,15,0c0,5.1,0,9.9,0,15.2c-4.8,0-9.7,0-15,0C128,378.2,128,373.2,128,367.8z"/>
	<path d="M447.1,312c0,5.2,0,10,0,15.1c-58.4,0-116.6,0-175.1,0c0-4.9,0-9.8,0-15.1C330.2,312,388.5,312,447.1,312z"/>
</g>
</svg>
