<?xml version="1.0" encoding="utf-8"?>
<!-- Generator: Adobe Illustrator 22.1.0, SVG Export Plug-In . SVG Version: 6.00 Build 0)  -->
<svg version="1.1" id="Layer_1" xmlns="http://www.w3.org/2000/svg" xmlns:xlink="http://www.w3.org/1999/xlink" x="0px" y="0px"
	 viewBox="0 0 512.1 479.6" style="enable-background:new 0 0 512.1 479.6;" xml:space="preserve">
<style type="text/css">
	.st0{fill:#16B8EA;}
	.st1{fill:#64B85A;}
	.st2{fill:#14B7EA;}
	.st3{fill:#65B95B;}
	.st4{fill:#17B8EA;}
	.st5{fill:#66BA5D;}
	.st6{fill:#69BB5F;}
</style>
<g>
	<path d="M104.1,295.3c3,0.2,5.2,0.4,7.7,0.6c0,5.2,0,10.1,0,15.8c-29.1,0-58.2,0-88.6,0c1.2,4,1.4,7.4,3,10
		c4.8,7.8,6.1,16.1,6,25.2c-0.4,31.8-0.2,63.6-0.2,95.5c0,1.5,0,3,0,4.9c-5.3,0-10.3,0-15.9,0c-0.1-1.5-0.2-3.1-0.2-4.7
		c0-33.7,0.1-67.3-0.1-101c0-3-0.9-6.5-2.5-8.9c-8-11.5-4.8-24.2-5.3-36.9c2.7-0.2,5-0.4,7.6-0.6c0-26.4,0-52.6,0-79.4
		c-5,0-9.9,0-15.6,0c0-9.4,0-18.3,0.1-27.2c0-0.8,0.9-1.7,1.7-2.3c13.3-11.6,26.5-23.2,39.8-34.9c3.9,3.9,7.5,7.6,11.5,11.6
		c-8.6,7.5-17.3,15.2-26.1,22.9c-2.9,2.5-5.9,4.9-8.6,7.6c-1.3,1.3-1.9,3.4-3.2,5.8c35.5,0,69.7,0,103.9,0c0.3-0.5,0.7-0.8,0.6-1
		c-1.6-8.6,3.4-13.4,9.3-18.6c38.7-33.5,77.1-67.3,115.6-100.9c2.4-2.1,3.3-4.1,3.3-7.2c-0.1-22,0-44,0-66c0-1.8,0-3.6,0-5.7
		c29.4,0,58.4,0,88,0c0,10.3,0,20.7,0,31.6c10.9,0,21.2,0,31.8,0c0,16.2,0,31.9,0,48c-23.8,0-47.4,0-71.1,0
		c-2.5-12.3-1.5-23.4,11.5-30.5c-0.4-0.3-0.7-0.5-1.1-0.8c-14.1,0-28.3,0-42.9,0c0,8.8-0.1,17.4,0.1,26c0,1.4,1.3,3,2.5,4
		c39.6,34.7,79,69.6,119,103.9c5.8,5,6.9,10.2,6.2,17.2c34.7,0,69,0,104.5,0c-1.1-2.2-1.5-4.4-2.9-5.7
		c-24.1-21.3-48.3-42.4-72.7-63.4c-1.7-1.4-4.4-2.2-6.7-2.2c-24.2-0.2-48.3-0.1-72.5-0.1c-1.7,0-3.3,0-5.4,0c0-5.3,0-10.4,0-15.9
		c1.6-0.1,3.2-0.3,4.8-0.3c26.5,0,53-0.1,79.5,0.1c2.5,0,5.6,1.2,7.5,2.9c26.8,23.2,53.5,46.7,80.3,69.9c2.8,2.4,3.9,4.9,3.8,8.6
		c-0.3,7.3-0.1,14.6-0.1,22.4c-5.3,0-10.2,0-15.6,0c0,26.9,0,53.2,0,79.8c2.4,0.2,4.7,0.3,7.6,0.5c-0.9,12.2,2.6,24.5-4.8,35.9
		c-2.2,3.3-3,8.1-3.1,12.2c-0.2,32.7-0.1,65.3-0.1,98c0,1.6,0,3.3,0,5.4c-5.4,0-10.5,0-16.2,0c0-2.3,0-4.6,0-6.9
		c0-33.5,0.2-67-0.1-100.5c-0.1-7.2,3.8-12.5,6.2-18.6c1.1-2.8,1.7-5.8,2.8-9.5c-30.1,0-59.1,0-88.4,0c0-5.6,0-10.6,0-16
		c2.4-0.2,4.6-0.4,7.6-0.7c0-1.8,0-3.6,0-5.3c0-13.8-0.1-27.7,0-41.5c0.1-13.6,11.6-25,24.8-24.8c12.4,0.2,23.3,12.1,23.3,25.3
		c0,15.3,0,30.6,0,46.3c7.9,0,15.5,0,23.5,0c0-26.2,0-52.4,0-79.2c-34.2,0-68.5,0-103.6,0c0-5.9,0.2-11.3-0.1-16.7
		c-0.1-2.1-1-4.7-2.5-5.9c-38.4-33.8-76.9-67.4-115.4-101.1c-0.5-0.4-1.1-0.8-2-1.5c-7.3,6.4-14.7,12.8-22.1,19.2
		c-31.7,27.8-63.5,55.5-95.1,83.4c-1.5,1.3-2.4,3.9-2.5,5.9c-0.4,5.3-0.1,10.6-0.1,16.4c-34.7,0-69,0-103.6,0c0,26.7,0,53,0,79.6
		c7.5,0,15,0,23.2,0c0.1-1.6,0.2-3.4,0.2-5.1c0-13.8,0-27.7,0-41.5c0-13.1,11.2-24.8,23.7-25c12.9-0.1,24.4,11.4,24.4,24.7
		C104.1,263.8,104.1,279.3,104.1,295.3z M319.6,16.1c-18.5,0-36.7,0-55.2,0c0,5.2,0,10.1,0,15.2c18.5,0,36.8,0,55.2,0
		C319.6,26.2,319.6,21.3,319.6,16.1z M351.6,47.8c-5.5,0-10.7-0.1-15.8,0c-1.6,0-3.8-0.2-4.8,0.7c-4.9,4.6-9.6,9.4-14.9,14.8
		c12.4,0,23.8,0,35.4,0C351.6,58.3,351.6,53.5,351.6,47.8z M87.8,263.4c0-6,0.3-11.7-0.1-17.3c-0.3-4.4-3.4-6.2-7.6-6.3
		c-4.1,0-7.4,1.6-7.7,6.1c-0.4,5.7-0.1,11.5-0.1,17.5C77.5,263.4,82.3,263.4,87.8,263.4z M439.8,263.4c0-6,0.2-11.3-0.1-16.6
		c-0.2-4.5-3.1-6.8-7.6-6.9c-4.4-0.1-7.7,1.8-8,6.4c-0.4,5.6-0.1,11.2-0.1,17.1C429.5,263.4,434.4,263.4,439.8,263.4z M87.6,295.4
		c0-5.3,0-10.2,0-15.3c-5.2,0-10.1,0-15.2,0c0,5.2,0,10.1,0,15.3C77.4,295.4,82.2,295.4,87.6,295.4z M439.6,280.2
		c-5.4,0-10.3,0-15.3,0c0,5.2,0,10.1,0,15.1c5.3,0,10.2,0,15.3,0C439.6,290.2,439.6,285.4,439.6,280.2z"/>
	<path d="M0.1,479.6c0-5.5,0-10.3,0-15.7c170.4,0,340.7,0,511.5,0c0,5,0,10.1,0,15.7C341.2,479.6,170.9,479.6,0.1,479.6z"/>
	<path d="M128.2,295.9c2.5-0.2,4.8-0.4,7.7-0.6c0-1.9,0-3.7,0-5.5c0-13.7,0-27.3,0-41c0-13.4,11.2-25.2,23.9-25.2
		c13,0,24.2,11.6,24.3,25.4c0,13.3,0,26.6,0,40c0,2,0,3.9,0,6.3c2.7,0.2,4.9,0.5,7.6,0.7c0,5,0,10.1,0,15.5c-21.1,0-42.1,0-63.5,0
		C128.2,306.2,128.2,301.2,128.2,295.9z M167.8,263.4c0-5.9,0.2-11.2,0-16.5c-0.2-4.3-2.6-6.7-6.9-7c-4-0.2-7.9,0.8-8.3,5.3
		c-0.6,6-0.1,12.1-0.1,18.2C157.7,263.4,162.4,263.4,167.8,263.4z M152.5,280.1c0,5.5,0,10.4,0,15.1c5.3,0,10.2,0,15,0
		c0-5.4,0-10.3,0-15.1C162.2,280.1,157.5,280.1,152.5,280.1z"/>
	<path d="M320.1,311.4c0-5.4,0-10.3,0-15.5c2.5-0.2,4.8-0.4,7.7-0.6c0-4.5,0-9,0-13.4c0-11-0.1-22,0-33
		c0.1-13.8,11.2-25.3,24.4-25.3c12.6,0,23.7,11.9,23.7,25.4c0,15.3,0,30.6,0,46.3c2.7,0.2,5.1,0.5,7.7,0.7c0,5.2,0,10.1,0,15.4
		C362.6,311.4,341.6,311.4,320.1,311.4z M359.8,263.4c0-5.9,0.2-11.2-0.1-16.5c-0.2-4.3-2.7-6.7-7-7c-4-0.3-7.8,1-8.3,5.4
		c-0.6,6-0.1,12.1-0.1,18.1C349.7,263.4,354.4,263.4,359.8,263.4z M359.6,280.2c-5.5,0-10.4,0-15.2,0c0,5.3,0,10.2,0,15
		c5.3,0,10.2,0,15.2,0C359.6,290.1,359.6,285.3,359.6,280.2z"/>
	<path d="M104.1,399.4c2.9,0.2,5.1,0.3,7.6,0.5c0,5.2,0,10.2,0,15.6c-21.1,0-42,0-63.4,0c0-5,0-10,0-15.5c2.3-0.2,4.7-0.4,7.6-0.7
		c0-3.2,0-6.1,0-9.1c0-12.7-0.1-25.3,0-38c0.1-13.1,11.3-24.6,24-24.6c12.6,0,24,11.4,24.1,24.5c0.1,14,0,28,0.1,42
		C104.1,395.7,104.1,397.4,104.1,399.4z M87.8,367.4c0-5.9,0.2-11.4-0.1-16.8c-0.2-4.4-2.9-6.6-7.2-6.7c-4.3-0.2-7.9,1.5-8.2,6.1
		c-0.5,5.7-0.1,11.5-0.1,17.4C77.6,367.4,82.3,367.4,87.8,367.4z M87.5,399.4c0-5.4,0-10.3,0-15.3c-5.2,0-10.1,0-15.1,0
		c0,5.3,0,10.2,0,15.3C77.6,399.4,82.3,399.4,87.5,399.4z"/>
	<path d="M400.1,415.4c0-5.4,0-10.3,0-15.5c2.5-0.2,4.8-0.3,7.4-0.5c0.1-1.5,0.3-3,0.3-4.4c0-13.8,0-27.7,0-41.5
		c0-13.8,10.9-25.7,23.9-25.9c13.1-0.2,24.3,11.8,24.3,25.9c0,15.1,0,30.3,0,45.7c2.7,0.3,5.1,0.5,7.7,0.7c0,5.2,0,10.1,0,15.5
		C442.6,415.4,421.6,415.4,400.1,415.4z M439.8,367.4c0-5.9,0.1-11.2,0-16.6c-0.2-4.3-2.8-6.6-7-6.9c-4.1-0.3-7.8,1-8.3,5.4
		c-0.6,6-0.1,12.1-0.1,18.1C429.7,367.4,434.5,367.4,439.8,367.4z M439.4,399.3c0-5.5,0-10.4,0-15.1c-5.4,0-10.3,0-14.9,0
		c0,5.4,0,10.3,0,15.1C429.7,399.3,434.4,399.3,439.4,399.3z"/>
	<path d="M376,399.4c3,0.2,5.2,0.3,7.6,0.4c0,5.2,0,10.3,0,15.7c-18.5,0-36.8,0-55.5,0c-0.1-1.7-0.3-3.1-0.3-4.6
		c0-19.5,0-38.9,0-58.4c0-13.4,11.1-24.9,24-24.9c13-0.1,24.2,11.3,24.2,24.7c0,13.8,0,27.6,0,41.4C376,395.5,376,397.3,376,399.4z
		 M359.7,367.4c0-5.9,0.2-11.3-0.1-16.7c-0.3-4.6-3.4-6.7-7.7-6.8c-4.1-0.1-7.3,1.9-7.7,6.2c-0.4,5.7-0.1,11.4-0.1,17.3
		C349.5,367.4,354.3,367.4,359.7,367.4z M359.4,399.4c0-5.5,0-10.4,0-15.1c-5.3,0-10.2,0-15,0c0,5.3,0,10.2,0,15.1
		C349.6,399.4,354.4,399.4,359.4,399.4z"/>
	<path d="M128.1,415.4c0-5.2,0-10.1,0-15.4c2.4-0.2,4.7-0.4,7.5-0.6c0.1-1.7,0.2-3.5,0.2-5.2c0-13.8,0-27.6,0-41.4
		c0-13.4,11.2-25,24-25.1c12.8,0,24.1,11.5,24.2,24.9c0.1,20.8,0,41.6,0,62.8C165.4,415.4,147.1,415.4,128.1,415.4z M152.1,367.2
		c5.7,0,10.6,0,15.7,0c0-5.7,0.1-11,0-16.3c-0.2-4.6-2.9-6.9-7.4-7.1c-4.7-0.2-7.9,2.2-8.2,6.8C151.9,356,152.1,361.5,152.1,367.2z
		 M152.4,384c0,5.4,0,10.3,0,15.3c5.3,0,10.2,0,15.1,0c0-5.3,0-10.1,0-15.3C162.4,384,157.6,384,152.4,384z"/>
	<path d="M67.2,158.5c-1.6-16.9-9-29.6-32-32c0-5,0-10.1,0-15.7c8.4-0.7,16.4-2.7,22.6-8.9c6.3-6.2,8.6-14.1,9.2-22.9
		c5.2,0,10.3,0,15.8,0c1.5,19.5,11.9,30.3,31.9,31.8c0,5.1,0,10.2,0,15.7c-19.5,1.5-30.3,11.9-31.8,31.9
		C77.7,158.5,72.6,158.5,67.2,158.5z M86.2,118.9c-3.5-3.7-7.6-8.1-10.9-11.5c-3.8,3.7-8.1,8-11.4,11.3c3.5,3.6,7.6,8,10.9,11.4
		C78.5,126.4,82.8,122.2,86.2,118.9z"/>
	<path d="M248.4,361.5c-2.2-17.9-9.2-29.4-32.5-32.2c0-1.9,0-3.8,0-5.8c0-3.1,0-6.3,0-9.3c21.8-2.7,30.2-13,32.5-32.2
		c5.1,0,10.1,0,15.2,0c5.1,23.1,9.9,28,32.5,32.3c0,1.7,0,3.5,0,5.3c0,3.3,0,6.6,0,9.8c-21.9,2.8-30.1,12.9-32.5,32.3
		C258.5,361.5,253.4,361.5,248.4,361.5z M267.3,321.7c-3.6-3.6-7.9-7.8-11-10.9c-3.7,3.5-8,7.7-11.1,10.6c3.5,3.7,7.6,8.1,10.8,11.6
		C259.5,329.4,263.6,325.3,267.3,321.7z"/>
	<path d="M288,175.7c-0.1,17-15.3,32.1-32.5,32.1c-16.6-0.1-31.9-15.6-31.7-32.3c0.1-16.7,15.5-31.9,32.2-31.9
		C272.8,143.6,288.1,159,288,175.7z M255.8,191.6c9.7,0.1,16-6.2,16-15.9c0-9.7-6.3-15.9-16-15.9c-9.4,0-15.7,6.3-15.8,15.6
		C240,185.3,246.2,191.6,255.8,191.6z"/>
	<path d="M175.9,112.1c0,5.3,0,10.1,0,15.3c-14.5,0-28.9,0-43.8,0c-0.4-5-0.9-10-1.3-15.3C146.2,112.1,161,112.1,175.9,112.1z"/>
</g>
</svg>
