<?xml version="1.0" encoding="utf-8"?>
<!-- Generator: Adobe Illustrator 22.1.0, SVG Export Plug-In . SVG Version: 6.00 Build 0)  -->
<svg version="1.1" id="Layer_1" xmlns="http://www.w3.org/2000/svg" xmlns:xlink="http://www.w3.org/1999/xlink" x="0px" y="0px"
	 viewBox="0 0 511.1 463.1" style="enable-background:new 0 0 511.1 463.1;" xml:space="preserve">
<style type="text/css">
	.st0{fill:#16B8EA;}
	.st1{fill:#64B85A;}
	.st2{fill:#14B7EA;}
	.st3{fill:#65B95B;}
	.st4{fill:#17B8EA;}
	.st5{fill:#66BA5D;}
	.st6{fill:#69BB5F;}
</style>
<g>
	<path d="M359.3,463.1c-5.4,0-10.2,0-15.3,0c-0.1-1.1-0.6-2.3-0.4-3.3c1.5-8.6-2.3-14.4-8.4-20.3c-25.7-24.8-50.8-50.1-76.1-75.2
		c-1.1-1-2.2-2-3.6-3.4c-1.4,1.3-2.7,2.4-4,3.7c-26.3,26-52.5,52.1-78.9,78c-3.9,3.8-6.1,7.5-5.3,13c0.3,2.3,0.1,4.6,0.1,7.3
		c-5.2,0-10.1,0-15.7,0c0-6.7-0.2-13.5,0.2-20.2c0.1-1.5,1.9-2.9,3.2-4.2c28.4-28.2,56.8-56.3,85.2-84.5c1.3-1.3,2.9-2.2,4.4-3.3
		c-4.5-4.3-8.2-7.8-12.1-11.6c-0.7,0.6-1.9,1.7-3,2.8c-30.2,29.9-60.3,59.9-90.5,89.7c-2.6,2.6-3.7,5.1-3.6,8.7
		c0.3,7.4,0.1,14.9,0.1,22.6c-5.4,0-10.3,0-15.7,0c0-11-0.1-21.8,0.1-32.6c0-1.6,1.8-3.4,3.2-4.7c31.6-31.4,63.2-62.7,94.8-94
		c1.3-1.3,2.8-2.4,5.3-5.7c-1.8-1-3.8-1.6-5.2-3c-29.1-28.7-58.1-57.4-86.9-86.3c-1.7-1.7-2.9-4.7-3.1-7.2
		c-0.4-7.1-0.1-14.3-0.1-21.9c-5.3,0-10.3,0-16,0c0,26.2,0,52.5,0,79.2c-26.8,0-53.1,0-79.9,0c0-26.4,0-52.8,0-79.6
		c-5.5,0-10.5,0-15.7,0c0-5.3,0-10.2,0-15.7c127.7,0,255.3,0,383.5,0c0-7,0.4-13.5-0.1-19.9c-0.5-6.8-6.1-12.3-12.9-12.3
		c-27.5-0.2-54.9-0.1-83-0.1c0,5.3,0,10.4,0,15.7c-42.8,0-85.1,0-127.3,0c-3.8-23.3,11-48.9,34.3-58.7c4-1.7,6-3.6,5.2-7.9
		c-1.1-6,1.3-10.4,5.9-14.2c5.3-4.5,9.3-11.4,15.3-14c5.8-2.4,13.4-0.7,20.3-0.7c15.2,0,30.3,0,45.9,0c0,5.1,0,10,0,15.7
		c-1.5,0-3.3,0-5,0c-14.5,0-29,0.7-43.5-0.2c-9-0.6-15.4,2.1-20.5,9c-1.4,1.9-2.2,4.3-3.8,7.3c25.1,0,48.7,0,73,0
		c0,10.7,0,21.1,0,32.1c2.4,0,4.1,0,5.9,0c24,0,48,0,72,0c20,0,34.2,14.3,34.3,34.3c0,4.3,0,8.6,0,13.2c7,0.9,13.7,1.9,18.5-5
		c0.8-1.2,2.6-2.4,4-2.4c19-0.2,37.9-0.1,57.2-0.1c0,5.3,0,10.2,0,15.7c-5.8,0-11.6,0-17.4,0c-10,0-20,0.2-30-0.1
		c-3.7-0.1-6.5,0.7-8.6,3.7c-2.7,3.8-6.3,4.8-10.8,4.5c-4.1-0.4-8.2-0.1-12.8-0.1c0,2.3,0,4.1,0,5.9c0,59,0,118,0,177
		c0,12.7,6.6,18.6,19.2,17.3c7.1-0.7,12.7-5.9,12.9-13c0.3-14.1,0.1-28.3,0.1-43c-5.3,0-10.3,0-15.6,0c0-16.2,0-31.7,0-47.6
		c15.7,0,31.3,0,47.1,0c0,15.7,0,31.3,0,47.3c-5,0-10,0-15.7,0c0,2.2,0,3.9,0,5.7c0,11,0,22,0,33c-0.1,18.3-14.8,33.7-32,33.5
		c-17.2-0.2-31.7-15.3-31.7-33.4c0-58.7,0-117.3,0-176c0-2,0-4,0-6.3c-5.4,0-10.5,0-16.3,0c0,6.6-0.3,13.2,0.1,19.7
		c0.2,4.5-1.1,7.7-4.4,10.9c-28.7,28.1-57.1,56.5-85.7,84.7c-1.3,1.3-2.8,2.4-4.7,3.9c1.8,1.9,3.1,3.3,4.4,4.7
		c31.7,31.5,63.4,62.9,95,94.4c1.7,1.7,3,4.8,3,7.2c0.3,9.8,0.1,19.6,0.1,29.7c-5.3,0-10.2,0-15.7,0c0-8,0.1-15.9-0.1-23.9
		c-0.1-2-0.7-4.4-2-5.7c-31.2-31.2-62.6-62.3-94-93.4c-0.5-0.5-1-0.8-1.5-1.1c-3.8,3.7-7.4,7.2-11.7,11.4c3.6,3.3,7.1,6.4,10.4,9.6
		c26.6,26.4,53.3,52.8,79.8,79.3c1.5,1.5,2.6,4.2,2.7,6.4C359.6,451.2,359.3,456.9,359.3,463.1z M254.7,294.7
		c2.4-2.3,3.6-3.4,4.8-4.6c24.1-23.9,48.2-47.9,72.5-71.7c3.3-3.2,4.2-6.4,3.1-10.8c-53.2,0-106.4,0-159.4,0
		c-1.4,4.9,0.3,8.1,3.7,11.3c15.9,15.4,31.6,31,47.3,46.7C236.1,275.1,245.2,284.8,254.7,294.7z M47.6,271.2c16.3,0,32,0,47.8,0
		c0-21.4,0-42.4,0-63.5c-16.1,0-31.9,0-47.8,0C47.6,229.1,47.6,250,47.6,271.2z M192.1,159.2c32,0,63.5,0,95.1,0
		c0-10.7,0-21.1,0-31.7c-1.6-0.1-2.9-0.2-4.2-0.2c-17.6,0-35.3-0.3-52.9,0.2c-6,0.2-12.3,1.7-17.7,4.3
		C201.1,137.1,194.5,146.5,192.1,159.2z M351.3,207.5c0,2.2-0.2,4,0,5.8c0.8,5.4-1.3,9.2-5.2,13c-25.3,24.8-50.4,49.9-75.6,74.8
		c-1.3,1.2-3.1,1.9-4.8,2.8c5,5.1,8.6,8.7,12.2,12.4c0.7-0.5,1.2-0.9,1.7-1.4c28.6-28.4,57.2-56.7,85.7-85.1c1-1,2.1-2.4,2.1-3.7
		c0.2-6.1,0.1-12.2,0.1-18.5C362,207.5,357,207.5,351.3,207.5z M244.2,305.1c-1.4-1.5-2.4-2.6-3.5-3.6
		c-24.5-24.3-48.8-48.7-73.5-72.7c-5.5-5.3-9.2-10.6-7.7-18.4c0.2-0.9-0.2-1.9-0.4-2.7c-5.4,0-10.4,0-15.8,0c0,5,0.2,9.6-0.1,14.3
		c-0.3,4,1.1,6.7,3.9,9.6c27.4,27,54.6,54.1,81.9,81.2c1.2,1.2,2.6,2.4,3.5,3.2C236.6,312.2,240.2,308.8,244.2,305.1z M255.9,316.6
		c-4.1,3.9-7.7,7.4-11.2,10.8c3.5,3.7,7.1,7.3,10,10.3c4-3.6,7.8-7.1,11.3-10.4C262.6,323.7,259.2,320.1,255.9,316.6z M463.2,335.3
		c0-5.4,0-10.6,0-15.7c-5.4,0-10.5,0-15.6,0c0,5.4,0,10.4,0,15.7C452.9,335.3,458,335.3,463.2,335.3z"/>
	<path d="M143,118.9c-21.2,2.9-30.1,11.8-31.9,32.1c-5,0-10,0-15.1,0C93.1,129.8,84,120.7,64,119.1c0-5,0-10.1,0-15.1
		c21.1-2.9,30.2-12.1,31.9-32.1c5,0,10.1,0,15.1,0c2.8,21.1,11.9,30.2,32.1,31.9C143,108.8,143,113.9,143,118.9z M114.9,111.7
		c-3.6-3.9-7.9-8.6-11-12c-4.1,3.8-8.7,8.2-12.2,11.5c3.9,3.8,8.4,8.3,11.8,11.6C107,119.4,111.5,115,114.9,111.7z"/>
	<path d="M343.8,46.8c0-4.9,0-9.8,0-14.7c21.7-3.6,30.4-12.3,32-32.1c5,0,10,0,15,0c1.9,19.4,11.4,30,32.2,32.1c0,4.9,0,9.8,0,14.7
		c-19.4,1.9-30.2,11.4-32.3,32.3c-4.9,0-9.8,0-14.7,0C374.2,59.6,364.8,48.9,343.8,46.8z M395.3,39.8c-3.9-3.9-8.4-8.5-11.9-11.9
		c-3.8,3.7-8.4,8.2-11.7,11.5c3.8,4,8.3,8.5,11.7,12C387.3,47.5,391.8,43.1,395.3,39.8z"/>
	<path d="M184,447.8c47.6,0,95.2,0,143,0c0,5,0,9.9,0,15.2c-47.6,0-95.1,0-143,0C184,458.2,184,453.3,184,447.8z"/>
	<path d="M103.1,447.9c0,5.2,0,9.9,0,15c-34.4,0-68.6,0-103.1,0c0-4.8,0-9.7,0-15C34.1,447.9,68.5,447.9,103.1,447.9z"/>
	<path d="M511.1,447.9c0,5.2,0,10,0,15c-34.4,0-68.6,0-103.1,0c0-4.8,0-9.7,0-15C442.1,447.9,476.4,447.9,511.1,447.9z"/>
</g>
</svg>
