<?xml version="1.0" encoding="UTF-8" standalone="no"?>
<svg
   xmlns:dc="http://purl.org/dc/elements/1.1/"
   xmlns:cc="http://creativecommons.org/ns#"
   xmlns:rdf="http://www.w3.org/1999/02/22-rdf-syntax-ns#"
   xmlns:svg="http://www.w3.org/2000/svg"
   xmlns="http://www.w3.org/2000/svg"
   height="79.519943"
   width="40.987373">

  <path
     style="fill:#ffffff;fill-rule:evenodd"
     d="m 40.65179,40.42975 c 0.443,-0.442 0.443,-1.159 -10e-4,-1.603 L 2.09179,0.33275042 c -0.444,-0.443 -1.163,-0.444 -1.606,-0.001 -0.443,0.442 -0.442,1.15999998 0.001,1.60299998 l 38.559,38.4939996 c 0.444,0.443 1.163,0.444 1.606,10e-4 z" />
  <path
     style="fill:#ffffff;fill-opacity:1;fill-rule:evenodd"
     d="m 40.65375,38.830314 c 0.445,0.445 0.445,1.168 -0.001,1.613 l -38.708001,38.742 c -0.445,0.446 -1.167,0.446 -1.610999,10e-4 -0.445,-0.445 -0.445,-1.167 0,-1.613 l 38.708,-38.742 c 0.446,-0.446 1.167,-0.446 1.612,-10e-4 z" />
</svg>
