<?xml version="1.0" encoding="utf-8"?>
<!-- Generator: Adobe Illustrator 22.1.0, SVG Export Plug-In . SVG Version: 6.00 Build 0)  -->
<svg version="1.1" id="Layer_1" xmlns="http://www.w3.org/2000/svg" xmlns:xlink="http://www.w3.org/1999/xlink" x="0px" y="0px"
	 viewBox="0 0 230.6 320.9" style="enable-background:new 0 0 230.6 320.9;" xml:space="preserve">
<style type="text/css">
	.st0{fill:#16B8EA;}
	.st1{fill:#64B85A;}
	.st2{fill:#14B7EA;}
	.st3{fill:#65B95B;}
	.st4{fill:#17B8EA;}
	.st5{fill:#66BA5D;}
	.st6{fill:#69BB5F;}
</style>
<g>
	<path d="M0,113.2C-1.4,63.3,37.8,11.7,96.5,1.6c63.8-11,125.9,35.4,133.2,99.7c4,35.7-5.2,67.8-25.9,96.9
		c-28.3,39.8-56.7,79.4-85.1,119.1c-3.4,4.7-3.4,4.8-6.7,0.2c-29.4-41.1-59-82-88-123.3C7.8,171,0,144.8,0,113.2z M197.6,114.5
		c-0.2-2-0.6-5.7-1-9.4c-4-35.7-33.9-67.1-73.7-71.5C89,29.9,52.3,51.1,39.4,84.4c-12.5,32.3-6.6,62.8,12.1,90.8
		c19.6,29.1,40.6,57.2,60.9,85.8c2.2,3.1,3.5,3.2,5.7,0c19.9-28.1,39.9-56,59.9-84.1C190.9,158.8,197,138.5,197.6,114.5z"/>
	<path d="M131.9,112.4c0,9.3-7.3,16.6-16.6,16.6c-9.3,0-16.5-7.4-16.5-16.7c0.1-9.2,7-16.2,16.3-16.3
		C124.6,95.9,131.9,103.1,131.9,112.4z"/>
</g>
</svg>
