<svg width="89" height="90" viewBox="0 0 89 90" fill="none" xmlns="http://www.w3.org/2000/svg">
<g clip-path="url(#clip0)">
<path d="M2.00151 -0.0022569C0.896351 -0.00223684 0.000693696 0.894131 0.00154899 1.99929L0.0510319 65.9381C0.0518867 67.0427 0.948031 67.9374 2.05261 67.9366L6.69812 67.9329C6.70389 67.9329 6.70857 67.9376 6.70857 67.9433V67.9433C6.70857 67.9491 6.71325 67.9538 6.71902 67.9538L36.5361 67.9131C37.0576 67.9124 37.5587 68.1154 37.9327 68.4788L57.9488 87.9299C59.2471 89.1916 60.9836 89.9012 62.7939 89.9098L64.7647 89.9191C66.9748 89.9296 68.7746 88.1457 68.7837 85.9356L68.8495 69.892C68.854 68.792 69.746 67.9021 70.846 67.9002L80.2041 67.884L86.9993 67.8786C88.1038 67.8777 88.9985 66.9816 88.9977 65.8771L88.9482 1.93874C88.9473 0.834164 88.0512 -0.0605805 86.9466 -0.0597185L80.1517 -0.0544157L8.79827 0.00846907C8.79527 0.00847171 8.79284 0.00604228 8.79284 0.0030445V0.0030445C8.79284 4.85465e-05 8.79041 -0.00238014 8.78742 -0.00238008L2.00151 -0.0022569ZM78.1603 8.6942C79.2649 8.69317 80.1613 9.58794 80.1621 10.6926L80.1989 57.1197C80.1998 58.2233 79.3066 59.119 78.203 59.1213L62.0563 59.155C60.9527 59.1573 60.0596 60.053 60.0605 61.1566L60.0651 67.0839L60.0658 67.9166L60.0484 72.3687C60.0415 74.1328 57.9203 75.0247 56.6549 73.7956L42.1613 59.7175C41.788 59.3549 41.2881 59.1521 40.7678 59.1521H40.5L10.8441 59.1914C9.7391 59.1929 8.84231 58.298 8.84143 57.193L8.80468 10.7583C8.80381 9.65385 9.69836 8.75775 10.8028 8.75673L78.1603 8.6942Z" fill="#A9A8A8" fill-opacity="0.96863"/>
</g>
<defs>
<clipPath id="clip0">
<rect width="89" height="90" rx="4" fill="white"/>
</clipPath>
</defs>
</svg>
