<?xml version="1.0" encoding="utf-8"?>
<!-- Generator: Adobe Illustrator 22.1.0, SVG Export Plug-In . SVG Version: 6.00 Build 0)  -->
<svg version="1.1" id="Layer_1" xmlns="http://www.w3.org/2000/svg" xmlns:xlink="http://www.w3.org/1999/xlink" x="0px" y="0px"
	 viewBox="0 0 511.5 584.9" style="enable-background:new 0 0 511.5 584.9;" xml:space="preserve">
<style type="text/css">
	.st0{fill:#16B8EA;}
	.st1{fill:#64B85A;}
	.st2{fill:#14B7EA;}
	.st3{fill:#65B95B;}
	.st4{fill:#17B8EA;}
	.st5{fill:#66BA5D;}
	.st6{fill:#69BB5F;}
</style>
<g>
	<path d="M383.2,110.4c-1.7-0.1-3.1-0.3-4.6-0.3c-21.3,0-42.7,0.1-64-0.1c-4.1,0-5.7,1.1-5.3,5.3c0.3,4.1,0.1,8.2,0.1,12.7
		c-48.4,0-96.3,0-144.9,0c0-5.7,0-11.4,0-17.5c-24.8,0-48.8,0-73.4,0c0,24.1,0,48,0,72.3c-6.3,0-12,0-18,0c0-30.2,0-60.3,0-90.9
		c18,0,35.9,0,54.5,0c0-18.4,0-36.3,0-54.9c18.5,0,36.4,0,54.4,0c0.3-1.2,0.7-1.9,0.6-2.4c-1.7-8.6,2.5-14.4,8.7-19.6
		c5.2-4.4,9-11.4,14.9-13.7c6-2.5,13.7-0.8,20.7-0.8c12.7,0,25.3-0.1,38,0.1c2.2,0,4.8,1.1,6.5,2.6c5.5,5.1,10.5,10.7,16,15.7
		c3.8,3.4,5.8,7.1,5,12.2c-0.3,1.6,0,3.3,0,5.5c2.3,0.1,4.2,0.4,6.1,0.4c14.7,0,29.3,0.1,44-0.1c3.8,0,4.8,1.3,4.8,4.9
		c-0.2,14.8-0.1,29.7-0.1,44.5c0,1.6,0,3.3,0,5.4c18.4,0,36.1,0,54.3,0c0,152.3,0,304.2,0,456.5c-1.3,0.1-2.7,0.4-4.2,0.4
		c-15.2,0-30.3-0.1-45.5,0.1c-3.7,0-5.1-1.1-4.8-4.8c0.3-4.3,0.1-8.6,0.1-13.3c12.4,0,24.1,0,36.3,0
		C383.2,390.5,383.2,250.8,383.2,110.4z M200.7,55.4c-18.6,0-36.4,0-54.5,0c0,12.3,0,24,0,36c6.1,0,11.8,0,18.2,0
		c0-6.1,0-11.8,0-17.5c6.4,0,12.1,0,18.3,0c0,12.2,0,23.9,0,35.8c36.3,0,72.1,0,108.7,0c0-12.3,0-24.2,0-36c6.3,0,11.9,0,18.1,0
		c0,4.9-0.2,9.5,0.1,14.1c0.1,1.3,1.3,3.5,2.1,3.6c5.6,0.3,11.2,0.2,16.8,0.2c0-12.5,0-24.2,0-36.5c-18.2,0-36.1,0-54.6,0
		c0-3.5-0.4-6.5,0.1-9.4c1.6-10.1-1.3-18.3-9.9-24c-2.3-1.5-5.1-3-7.8-3.1c-9.3-0.4-18.7,0.5-27.9-0.4c-10.4-1-18.6,1.7-24.4,10.3
		c-1.5,2.2-2.8,4.8-3,7.3C200.4,42.2,200.7,48.4,200.7,55.4z"/>
	<path d="M420.1,566.9c0-164.6,0-328.7,0-493.4c-17.3,0-34.3,0-51.7,0c0-6.2,0-11.8,0-17.7c23.2,0,46.3,0,69.7,0
		c0,176.2,0,352.4,0,529c-133.6,0-267.2,0-401.3,0c0-100.2,0-200.4,0-301.1c4.3,0,8.3,0,12.2,0c1.6,0,3.3,0.1,5.4,0.3
		c0,94.4,0,188.4,0,282.9C176.4,566.9,297.9,566.9,420.1,566.9z"/>
	<path d="M484,546.3c-6.8-14.4-12.4-27.9-19.3-40.8c-6.3-11.8-8.3-24-8.2-37.3c0.4-109.8,0.2-219.6,0.2-329.4
		c0-13.2,8.8-25.2,20.9-28.5c15.8-4.3,33.7,9.2,33.8,25.7c0.1,15.2,0,30.3,0,45.5c0,100.3,0,200.6-0.1,300.9c0,3.5-0.8,7.3-2.3,10.5
		c-7.3,16.2-14.9,32.3-22.4,48.5C486.1,542.6,485.3,543.9,484,546.3z M483.5,501.7c0.7,0.1,1.3,0.2,2,0.3c2.6-7.6,7.6-15.1,7.6-22.7
		c0.5-101.6,0.3-203.3,0.3-304.9c0-12.5,0.1-25,0-37.5c-0.1-6.4-3-9.4-8.9-9.7c-6.6-0.2-9.5,3.1-9.5,11c0,111.5,0.1,222.9-0.3,334.4
		C474.7,483.9,479.3,492.5,483.5,501.7z"/>
	<path d="M310.1,310.7c-48.4,0-96.6,0-145.1,0c0-48.3,0-96.5,0-145c48.3,0,96.5,0,145.1,0C310.1,214,310.1,262.2,310.1,310.7z
		 M182.9,183.4c0,37,0,73.3,0,109.7c1.1,0.1,1.7,0.2,2.4,0.2c34.1,0,68.3,0,102.4,0.1c4.1,0,5-1.4,5-5.2
		c-0.1-33.6-0.1-67.3-0.1-100.9c0-1.3-0.2-2.5-0.4-3.9C255.6,183.4,219.4,183.4,182.9,183.4z"/>
	<path d="M90.3,530.6c67.5,0,134.1,0,201.1,0c0,6,0,11.6,0,17.4c-72.7,0-145.3,0-218.2,0c0-96.9,0-193.8,0-291.1c5.4,0,11,0,17.2,0
		C90.3,347.7,90.3,438.8,90.3,530.6z"/>
	<path d="M310.2,329.8c0,24.1,0,48,0,72.3c-5.8,0-11.5,0-18,0c0-3.3,0-6.4,0-9.5c0-13.5,0-27,0.1-40.5c0-3-0.7-4.5-4.2-4.5
		c-34.3,0.1-68.6,0.1-102.9,0.1c-0.6,0-1.3,0.2-2.3,0.3c0,36.3,0,72.5,0,109.2c17.9,0,35.8,0,54.1,0c0,6.2,0,11.9,0,18
		c-24,0-47.9,0-72.3,0c0-48.4,0-96.8,0-145.4C213.2,329.8,261.6,329.8,310.2,329.8z"/>
	<path d="M0,228.6c0-6.2,0-11.8,0-17.7c9.9-0.6,18.8-3.1,25.9-10.2c7.1-7.1,9.8-16,10.6-26c5.9,0,11.6,0,17.8,0
		c0.5,9.7,3.1,18.6,10.1,25.7c7,7.1,15.9,10,26.5,10.4c0,5.3,0.1,10.6-0.1,15.8c0,0.8-1.5,2.1-2.5,2.3
		c-23.7,4.8-30.8,12.2-34.2,36.2c-5.7,0-11.5,0-17.5,0C34.9,242.6,22.8,230.3,0,228.6z M58.3,219.6c-4-4.2-8.8-9.3-12.7-13.3
		c-4.4,4.6-9.2,9.8-13,13.7c3.8,3.7,8.8,8.7,12.6,12.4C49.2,228.6,54.2,223.7,58.3,219.6z"/>
	<path d="M310.1,420.9c2.6,23.8,13,34.3,36.3,36.8c0,5.7,0,11.4,0,17.5c-22.1,1.9-34.8,13.6-36.2,36.7c-5.9,0-11.6,0-17.3,0
		c-6.5-27.1-12.4-33-37.1-36.8c0-2.9,0-5.8,0-8.8c0-2.8,0-5.6,0-8.3c4.2-0.8,8-1.1,11.6-2.2c14.8-4.5,22.8-15,24.6-30.1
		c0.5-3.9,1.7-5.2,5.5-4.9C301.5,421.1,305.7,420.9,310.1,420.9z M301.7,453.5c-4.3,4.3-9.3,9.4-13.3,13.4c4,3.8,9.2,8.6,13,12.2
		c3.9-3.7,9-8.6,13.3-12.7C310.6,462.3,305.6,457.3,301.7,453.5z"/>
	<path d="M36.7,55.6c25.1,0,49.7,0,74.8,0c0,5.9,0,11.6,0,17.8c-18.9,0-37.7,0-56.8,0c0,27.5,0,54.4,0,81.8c-6.1,0-11.8,0-17.9,0
		C36.7,122.1,36.7,89.1,36.7,55.6z"/>
	<path d="M225.9,429c-5.6-5.5-9.6-9.4-14.6-14.3c4.7-3.7,9.1-7.2,14.4-11.3c-5.7-4.8-10-8.4-14.6-12.2c5.6-4.9,9.9-8.7,14.6-12.9
		c3.1,2.9,7.2,6.9,12.2,11.7c3.9-4.5,7.5-8.8,11-12.9c4.8,4.9,8.8,9,13.6,13.9c-3.8,3.2-8.1,6.7-13.7,11.3
		c5.7,4.5,10.2,8.1,14.8,11.8c-5.5,5.2-9.6,9.2-14.8,14.2c-3.3-4.1-6.8-8.5-11.4-14.1C233,419.7,229.6,424.2,225.9,429z"/>
	<path d="M310.9,530.7c5.9,0,11.5,0,17.4,0c0,5.8,0,11.5,0,17.6c-5.8,0-11.5,0-17.4,0C310.9,542.5,310.9,536.9,310.9,530.7z"/>
	<path d="M219.5,54.9c0-5.7,0-11.3,0-17.2c11.9,0,23.6,0,35.6,0c0,5.7,0,11.2,0,17.2C243.5,54.9,231.7,54.9,219.5,54.9z"/>
	<path d="M226.4,269.4c-7.6-7.9-15.6-16.3-23.1-24.2c4.1-4.7,7.8-8.9,12-13.8c4.1,4.5,7.7,8.6,11.7,13.1c3.2-3.2,5.8-5.7,8.3-8.2
		c6.9-6.9,13.9-13.8,20.8-20.9c2.2-2.3,3.8-2.5,6.1-0.1c3.1,3.3,6.4,6.2,9.4,9.1C256.4,239.6,241.6,254.3,226.4,269.4z"/>
</g>
</svg>
