<?xml version="1.0" encoding="utf-8"?>
<!-- Generator: Adobe Illustrator 22.1.0, SVG Export Plug-In . SVG Version: 6.00 Build 0)  -->
<svg version="1.1" id="Layer_1" xmlns="http://www.w3.org/2000/svg" xmlns:xlink="http://www.w3.org/1999/xlink" x="0px" y="0px"
	 viewBox="0 0 511.6 375.4" style="enable-background:new 0 0 511.6 375.4;" xml:space="preserve">
<style type="text/css">
	.st0{fill:#16B8EA;}
	.st1{fill:#64B85A;}
	.st2{fill:#14B7EA;}
	.st3{fill:#65B95B;}
	.st4{fill:#17B8EA;}
	.st5{fill:#66BA5D;}
	.st6{fill:#69BB5F;}
</style>
<g>
	<path d="M0,375.4c0-5.2,0-10,0-15.8c9.3,0,18.5,0,27.8,0c9.1,0,18.3,0,27.7,0c0-53.4,0-106.3,0-159.7c-7.7,0-15.3,0-23.3,0
		c0-16.2,0-31.9,0-48c21.1,0,42,0,63.4,0c0,5,0,10.1,0,15.6c-15.6,0-31.1,0-47.1,0c0,5.4,0,10.3,0,15.9c15.6,0,31.3,0,47.3,0
		c0,5.6,0,10.5,0,16.2c-7.7,0-15.4,0-23.4,0c0,53.6,0,106.5,0,159.7c13.2,0,26.1,0,39.5,0c0-5.5,0.2-10.8-0.1-16.1
		c-0.2-3.3,1.1-5,3.9-6.6c16.1-9,32.1-18.3,48.2-27.4c3-1.7,4.1-3.6,4-7.1c-0.2-9.8-0.1-19.6-0.1-30.2c-18.6,0-37,0-55.8,0
		c0-12.2-0.6-23.6,0.2-35c0.5-7.7,8.3-13.3,16.4-13.3c12.8-0.1,25.6,0,38.9,0c0-31.9,0-63.5,0-95.5c5.5,0,10.6,0,16.2,0
		c0,31.5,0,63.1,0,95.3c2.2,0.1,4,0.3,5.7,0.3c11.2,0,22.3,0,33.5,0c9.8,0.1,17,7.3,17.1,17c0,10.1,0,20.3,0,30.9c-18.7,0-37,0-56,0
		c0,8.1,0.8,15.8-0.2,23.3c-1.2,9.2,2.3,14,10.3,18.1c14.1,7.1,27.5,15.6,41.3,23.3c3.3,1.8,4.9,3.7,4.6,7.7
		c-0.4,4.9-0.1,9.9-0.1,15.3c42.7,0,84.9,0,127.5,0c0-52.9,0-105.8,0-159.2c-37,0-73.9,0-111.2,0c0-5.5,0-10.6,0-16.2
		c66.2,0,132.4,0,199.1,0c0-5.4,0-10.3,0-15.9c-66.2,0-132.6,0-199.3,0c0-5.6,0-10.5,0-16.2c21.1,0,42.1,0,63.4,0
		c0-8.3,0-15.8,0-23.9c-21.2,0-42.1,0-63.4,0c0-42.9,0-85.3,0-127.9C320,0,383.6,0,447.6,0c0,42.4,0,84.8,0,127.7
		c-21,0-41.9,0-63.2,0c0,8.1,0,15.6,0,23.7c28.9,0,57.8,0,87.2,0c0,16.2,0,31.9,0,48.2c-4.9,0-9.8,0-15.1,0c0,53.4,0,106.3,0,159.9
		c18.2,0,36.6,0,55.3,0c0,5.6,0,10.5,0,15.9C341.2,375.4,170.9,375.4,0,375.4z M272.2,111.4c53.2,0,106.1,0,159.2,0
		c0-31.9,0-63.4,0-95.2c-53.2,0-106.1,0-159.2,0C272.2,48,272.2,79.6,272.2,111.4z M384.2,231.4c18.5,0,36.7,0,55.2,0
		c0-10.5,0-20.7,0-31.2c-18.5,0-36.7,0-55.2,0C384.2,210.7,384.2,220.9,384.2,231.4z M439.5,248.1c-18.5,0-36.7,0-55.2,0
		c0,10.5,0,20.7,0,31.2c18.5,0,36.7,0,55.2,0C439.5,268.9,439.5,258.6,439.5,248.1z M439.3,327.4c0-10.8,0-21.1,0-31.1
		c-18.6,0-36.9,0-55,0c0,10.7,0,20.9,0,31.1C402.9,327.4,421,327.4,439.3,327.4z M128.3,240.1c0,5.2,0,10.1,0,15.3
		c31.8,0,63.4,0,95.2,0c0-5.2,0-10.1,0-15.3C191.8,240.1,160.3,240.1,128.3,240.1z M128.3,359.2c13.3,0,26.3,0,39.1,0
		c0-11.1,0-21.8,0-33.2c-11.1,6.3-21.3,12.8-32.1,18.2c-6.3,3.1-8.5,7.1-7.3,13.6C128.1,358.1,128.2,358.5,128.3,359.2z
		 M184.1,359.2c13.4,0,26.4,0,39,0c2.5-7.7-0.2-12-7-15.3c-9.7-4.7-18.8-10.6-28.2-15.9c-1.1-0.6-2.3-1-3.8-1.7
		C184.1,337.5,184.1,348.1,184.1,359.2z M384.2,359.3c18.6,0,36.8,0,55.2,0c0-5.2,0-10.1,0-15.2c-18.5,0-36.8,0-55.2,0
		C384.2,349.2,384.2,354,384.2,359.3z M336.2,151.2c10.8,0,21.1,0,31.1,0c0-8,0-15.6,0-22.9c-10.7,0-20.9,0-31.1,0
		C336.2,136.2,336.2,143.6,336.2,151.2z"/>
	<path d="M200.1,207.8c0-5.7,0-10.7,0-16.2c5.2,0,10.2,0.1,15.1,0c6.1-0.1,8.5-2.4,8.5-8.5c0-29.3,0.1-58.6-0.1-87.9
		c-0.1-13.7-9.4-23-23-23.2c-16.5-0.3-33-0.3-49.5,0c-13.8,0.3-23,9.3-23.1,23.1c-0.3,29.5-0.1,59-0.1,88.4c0,5.7,2.6,8.1,8.4,8.2
		c5,0.1,9.9,0,15.2,0c0,5.5,0,10.6,0,15.8c-6.7,0-13.2,0.8-19.5-0.2c-11.6-1.7-20.3-12.7-20.3-24.4c0-29,0-58,0-86.9
		c0-21.5,18.7-40.2,40.2-40.3c16-0.1,32,0,48,0c20.6,0,39.7,18.4,39.9,39.1c0.3,29.6,0.2,59.3,0,88.9c-0.1,12.7-11.3,23.8-24,24.1
		C210.8,207.9,205.6,207.8,200.1,207.8z"/>
	<path d="M264.1,280c21.3-3.1,28.1-10,32.2-32c5,0,10.1,0,15.2,0c3,23,14.5,30.2,32.2,32.1c0,5,0,10.1,0,15.2
		c-23,4.9-28.4,10.3-32.1,32.3c-5,0-10.1,0-15.5,0c-1.5-19.7-12-30.4-31.9-31.9C264.1,290.4,264.1,285.3,264.1,280z M314.7,288.1
		c-3.5-3.8-7.6-8.2-10.6-11.4c-3.8,3.5-8,7.6-11.4,10.8c3.5,3.8,7.6,8.3,10.7,11.6C307.2,295.3,311.5,291.2,314.7,288.1z"/>
	<path d="M127.6,47.5C106,51,98.7,58.3,95.6,79.9c-2.4,0-5,0-7.6,0c-2.5,0-5,0-7.9,0c-0.8-8.6-2.8-16.6-8.9-22.8
		c-6.2-6.2-14-8.8-22.9-9.2c0-5.2,0-10.3,0-15.8C67.5,30.5,78.4,20.2,80,0.1c5.1,0,10.2,0,15.7,0c1.5,19.3,11.8,30.2,31.9,31.7
		C127.6,37,127.6,42,127.6,47.5z M88.2,28.7c-3.8,3.7-8.2,7.8-11.4,11c3.4,3.7,7.4,8.1,10.6,11.6c3.9-3.9,8.2-8.1,11.8-11.6
		C95.7,36.1,91.5,31.9,88.2,28.7z"/>
</g>
</svg>
