<svg id="workspace" xmlns="http://www.w3.org/2000/svg" xmlns:xlink="http://www.w3.org/1999/xlink" style="text-rendering: geometricprecision; cursor: auto;"><desc>Created with Snap</desc><defs><linearGradient x1="0" y1="0.5" x2="1" y2="0.5" id="linearGradientSkj7q994z1c"><stop offset="0%" stop-color="#232829"></stop><stop offset="100%" stop-color="#232829"></stop></linearGradient><linearGradient x1="0" y1="0.5" x2="1" y2="0.5" id="linearGradientSkj7q994z1l"><stop offset="0%" stop-color="#232829"></stop><stop offset="100%" stop-color="#232829"></stop></linearGradient><linearGradient x1="0" y1="0.5" x2="1" y2="0.5" id="linearGradientSkj7q994z1u"><stop offset="0%" stop-color="#000000"></stop><stop offset="100%" stop-color="#000000"></stop></linearGradient><linearGradient x1="0" y1="0.5" x2="1" y2="0.5" id="linearGradientSkj7q994z23"><stop offset="0%" stop-color="#cf1717"></stop><stop offset="100%" stop-color="#cf1717"></stop></linearGradient><linearGradient x1="0" y1="0.5" x2="1" y2="0.5" id="linearGradientSkj7q994z2c"><stop offset="0%" stop-color="#ffffff"></stop><stop offset="100%" stop-color="#ffffff"></stop></linearGradient><linearGradient x1="0" y1="0.5" x2="1" y2="0.5" id="linearGradientSkj7q994z2m"><stop offset="0%" stop-color="#232829"></stop><stop offset="100%" stop-color="#232829"></stop></linearGradient><linearGradient x1="0" y1="0.5" x2="1" y2="0.5" id="linearGradientSkj7q994z2p"><stop offset="0%" stop-color="#232829"></stop><stop offset="100%" stop-color="#232829"></stop></linearGradient><linearGradient x1="0" y1="0.5" x2="1" y2="0.5" id="linearGradientSkj7q994z2s"><stop offset="0%" stop-color="#000000"></stop><stop offset="100%" stop-color="#000000"></stop></linearGradient><linearGradient x1="0" y1="0.5" x2="1" y2="0.5" id="linearGradientSkj7q994z2v"><stop offset="0%" stop-color="#cf1717"></stop><stop offset="100%" stop-color="#cf1717"></stop></linearGradient><linearGradient x1="0" y1="0.5" x2="1" y2="0.5" id="linearGradientSkj7q994z2y"><stop offset="0%" stop-color="#ffffff"></stop><stop offset="100%" stop-color="#ffffff"></stop></linearGradient><linearGradient x1="0" y1="0.5" x2="1" y2="0.5" id="linearGradientSkj7q994z34"><stop offset="0%" stop-color="#232829"></stop><stop offset="100%" stop-color="#232829"></stop></linearGradient><linearGradient x1="0" y1="0.5" x2="1" y2="0.5" id="linearGradientSkj7q994z37"><stop offset="0%" stop-color="#232829"></stop><stop offset="100%" stop-color="#232829"></stop></linearGradient><linearGradient x1="0" y1="0.5" x2="1" y2="0.5" id="linearGradientSkj7q994z3a"><stop offset="0%" stop-color="#000000"></stop><stop offset="100%" stop-color="#000000"></stop></linearGradient><linearGradient x1="0" y1="0.5" x2="1" y2="0.5" id="linearGradientSkj7q994z3d"><stop offset="0%" stop-color="#cf1717"></stop><stop offset="100%" stop-color="#cf1717"></stop></linearGradient><linearGradient x1="0" y1="0.5" x2="1" y2="0.5" id="linearGradientSkj7q994z3g"><stop offset="0%" stop-color="#ffffff"></stop><stop offset="100%" stop-color="#ffffff"></stop></linearGradient><linearGradient x1="0" y1="0.5" x2="1" y2="0.5" id="linearGradientSkj7q994z3j"><stop offset="0%" stop-color="#000000"></stop><stop offset="100%" stop-color="#000000"></stop></linearGradient><linearGradient x1="0" y1="0.5" x2="1" y2="0.5" id="linearGradientSkj7q994z3m"><stop offset="0%" stop-color="#000000"></stop><stop offset="100%" stop-color="#000000"></stop></linearGradient><linearGradient x1="0" y1="0.5" x2="1" y2="0.5" id="linearGradientSkj7q994z3p"><stop offset="0%" stop-color="#000000"></stop><stop offset="100%" stop-color="#000000"></stop></linearGradient><linearGradient x1="0" y1="0.5" x2="1" y2="0.5" id="linearGradientSkj7q994z3w"><stop offset="0%" stop-color="#000000"></stop><stop offset="100%" stop-color="#000000"></stop></linearGradient></defs><g class="background-part"><rect x="0" y="0" width="2465.2" height="890.6" fill="rgba(255,255,255,0.25)" style=""></rect></g><g class="selector-part"><rect x="0" y="0" width="2465.2" height="890.6" fill="rgba(255,255,255,0)" style="transition: all 0.6s ease 0s;"></rect></g><g class="selector-part" transform="matrix(1,0,0,1,513,275)"><rect x="0" y="0" width="0" height="0" fill="rgba(255,255,255,0)" style="cursor: move;"></rect></g><g class="svg-clip svg-visible" transform="matrix(6.2672,0,0,2.3408,742.1458,342.1029)" style="cursor: move; opacity: 1;"><rect x="0" y="0" width="186" height="17" fill="none" class="svg-hitbox" style=""></rect><svg width="186.742" height="17.218999999999994" viewBox="-5,79.525,186.742,17.218999999999994"><desc>Created with Snap</desc><defs></defs><g></g><g></g><g></g><g><rect y="84.525" width="176.742" height="7.219" stroke="none" fill="url('#linearGradientSkj7q994z34')" style=""></rect></g></svg></g><g class="svg-clip svg-visible" transform="matrix(6.2672,0,0,2.3408,737.1458,549.1029)" style="cursor: move; opacity: 1;"><rect x="0" y="0" width="186" height="17" fill="none" class="svg-hitbox" style=""></rect><svg width="186.742" height="17.218999999999994" viewBox="-5,79.525,186.742,17.218999999999994"><desc>Created with Snap</desc><defs></defs><g></g><g></g><g></g><g><rect y="84.525" width="176.742" height="7.219" stroke="none" fill="url('#linearGradientSkj7q994z37')" style=""></rect></g></svg></g><g class="svg-clip svg-visible" transform="matrix(3.0044,0,0,3.0044,517.8228,279.7608)" style="cursor: move; opacity: 1;"><rect x="0" y="0" width="80" height="108" fill="none" class="svg-hitbox" style=""></rect><svg width="80.96623331382605" height="108.85195128686802" viewBox="12.38914920742262,-4.425951286868003,80.96623331382605,108.85195128686802"><desc>Created with Snap</desc><defs></defs><g></g><g></g><g><path fill="url('#linearGradientSkj7q994z3w')" d="M49.45,18.121l0.106,6.09c0,0-0.001,0.832,0.563,1.41c0.719,0.738,2.199,2.022,3.309,2.002  c1.11-0.019,2.588-1.354,3.279-2.118c0.545-0.597,0.514-1.428,0.514-1.428l-0.104-6.09L49.45,18.121z M60.323,67.785  c-0.613,7.48,2.348,9.283,4.391,12.579c2.56,4.124,7.503,9.192,8.372,14.388c0.395,2.361,0.53,3.807,0.566,4.674H17.443  c0.048-3.18-1.671-13.939,11.025-27.33c4.275-4.51,16.099-14.285,8.503-24.715c-1.678-2.305-3.011-4.833-3.962-7.494  c-6.013-0.219-9.977-0.448-10.344-0.487c-1.834-0.191-1.829-0.567-1.829-0.567l4.635-10.09c0,0,0.118-10.39,3.408-16.715  c3.442-6.617,8.97-9.93,20.782-10.993c13.012-1.171,24.01-1.004,27.978,11.587c4.229,13.43,1.797,12.487,6.486,15.475  c1.031,0.656,2.764,1.437,3.742,1.936c0.38,0.212,0.496,0.202,0.488,0.65c-0.008,0.363-0.559,0.427-1.246,0.395  c-1.243-0.056-5.447,0.016-10,0.608c-0.147,0.836,0.1,1.707,1.062,3.075c1.07,1.511,4.146,6.048,4.832,7.298  c0.955,1.745-4.554,1.8-4.07,3.125c0.219,0.607,0.961,2.134,1.199,2.725c0.289,0.716-1.424,1.17-1.434,1.668  c0.002,0.189,1.056,0.29,0.891,1.541c-0.104,0.764-1.646,0.164-1.736,3.077c-0.045,1.582,1.847,3.787-1.317,5.791  c-1.812,1.146-6.019-0.116-9.699,0.265l0.129,0.414c-0.513,0.116-1.044,0.258-1.584,0.42c-0.628,0.194-1.229,0.406-1.794,0.636  l-0.12-0.402C61.818,62.359,60.611,64.295,60.323,67.785z M55.2,18.795l1.665-0.029l-0.971,2.348l0.938-0.351l-1.768,4.276  l-1.666,0.03l1.099-2.664l-0.935,0.35L55.2,18.795z M51.852,18.854l1.666-0.028l-0.97,2.348l0.937-0.352l-1.767,4.276l-1.667,0.03  l1.1-2.664l-0.935,0.351L51.852,18.854z" stroke="none" style=""></path></g></svg></g><g class="svg-clip svg-visible" transform="matrix(0.9509,-0.0832,0.0078,0.0886,550.8457,368.4945)" style="cursor: move; opacity: 1;"><rect x="0" y="0" width="186" height="186" fill="none" class="svg-hitbox" style=""></rect><svg width="186.769" height="186.769" viewBox="-5.013000000000005,-5,186.769,186.769"><desc>Created with Snap</desc><defs></defs><g></g><g></g><g><rect x="-0.013" y="0" width="176.769" height="176.769" stroke="none" fill="url('#linearGradientSkj7q994z3d')" style=""></rect></g></svg></g><g class="svg-clip svg-visible" transform="matrix(0.9509,-0.0832,0.0078,0.0886,549.8457,353.4945)" style="cursor: move; opacity: 1;"><rect x="0" y="0" width="186" height="186" fill="none" class="svg-hitbox" style=""></rect><svg width="186.769" height="186.769" viewBox="-5.013000000000005,-5,186.769,186.769"><desc>Created with Snap</desc><defs></defs><g></g><g></g><g><rect x="-0.013" y="0" width="176.769" height="176.769" stroke="none" fill="url('#linearGradientSkj7q994z3g')" style=""></rect></g></svg></g><g class="svg-text svg-visible" transform="matrix(2.0849,0,0,2.0849,1324,329)" style="pointer-events: fill; cursor: move; opacity: 1;"><path fill="none" style="" d="M-273.8,115.80000000000001 C-20,114.80000000000001 20,114.80000000000001 273.8,115.80000000000001"></path><path d="M-242.60000000000002 0L-270.6 0L-270.6-8.1L-267.3-8.4Q-264.40000000000003-8.7 -264.40000000000003-11.2L-264.40000000000003-11.2L-264.40000000000003-57.7L-270.1-58L-270.1-66.5L-241.5-66.5Q-230.3-66.5 -224.05-61.25Q-217.8-56 -217.8-45.5Q-217.8-35 -224.9-29.15Q-232-23.3 -243.70000000000002-23.3L-243.70000000000002-23.3L-252.20000000000002-23.3L-252.20000000000002-8.8L-242.60000000000002-8.5L-242.60000000000002 0ZM-252.20000000000002-56.8L-252.20000000000002-33L-245-33Q-230.4-33 -230.4-44.9L-230.4-44.9Q-230.4-52.1 -234.15-54.45Q-237.9-56.8 -246.10000000000002-56.8L-246.10000000000002-56.8L-252.20000000000002-56.8ZM-191.50000000000003-7.3L-191.50000000000003-7.3Q-180.60000000000002-7.3 -180.60000000000002-24.9L-180.60000000000002-24.9Q-180.60000000000002-33.8 -183.05000000000004-38.4Q-185.50000000000006-43 -191.25000000000003-43Q-197.00000000000003-43 -199.70000000000005-38.6Q-202.40000000000003-34.2 -202.40000000000003-26.6L-202.40000000000003-26.6Q-202.40000000000003-12.5 -197.20000000000005-8.9L-197.20000000000005-8.9Q-194.90000000000003-7.3 -191.50000000000003-7.3ZM-214.50000000000003-25.2L-214.50000000000003-25.2Q-214.50000000000003-32.6 -212.30000000000004-38.05Q-210.10000000000005-43.5 -206.40000000000003-46.4L-206.40000000000003-46.4Q-199.30000000000004-51.8 -190.70000000000005-51.8L-190.70000000000005-51.8Q-184.70000000000005-51.8 -180.55000000000004-49.85Q-176.40000000000003-47.9 -174.05000000000004-45.35Q-171.70000000000005-42.8 -170.05000000000004-37.95Q-168.40000000000003-33.1 -168.40000000000003-26.5L-168.40000000000003-26.5Q-168.40000000000003-12.7 -175.10000000000002-5.6Q-181.80000000000004 1.5 -192.25000000000003 1.5Q-202.70000000000005 1.5 -208.60000000000005-5.25Q-214.50000000000003-12 -214.50000000000003-25.2ZM-161.7-71.3L-143.8-71.3L-143.8-8.3L-138.1-8L-138.1 0L-161.9 0L-161.9-7.6L-158.6-7.9Q-155.7-8.2 -155.7-11.1L-155.7-11.1L-155.7-60.4Q-155.7-62.6 -158.2-62.8L-158.2-62.8L-161.7-63L-161.7-71.3ZM-131.70000000000002-50.3L-113.80000000000001-50.3L-113.80000000000001-8.3L-108.10000000000002-8L-108.10000000000002 0L-131.9 0L-131.9-7.6L-128.60000000000002-7.9Q-125.70000000000002-8.2 -125.70000000000002-11.1L-125.70000000000002-11.1L-125.70000000000002-38.9Q-125.70000000000002-40.6 -126.25000000000001-41.2Q-126.80000000000001-41.8 -128.20000000000002-41.8L-128.20000000000002-41.8L-131.70000000000002-42L-131.70000000000002-50.3ZM-126.40000000000002-58.95Q-128.50000000000003-61 -128.50000000000003-64.2Q-128.50000000000003-67.4 -126.40000000000002-69.55Q-124.30000000000001-71.7 -120.90000000000002-71.7Q-117.50000000000001-71.7 -115.35000000000002-69.55Q-113.20000000000002-67.4 -113.20000000000002-64.2Q-113.20000000000002-61 -115.35000000000002-58.95Q-117.50000000000001-56.9 -120.90000000000002-56.9Q-124.30000000000001-56.9 -126.40000000000002-58.95ZM-76.1-42.7L-76.1-42.7Q-78.5-43.6 -81.89999999999999-43.6Q-85.3-43.6 -87.35-42.05Q-89.39999999999999-40.5 -89.39999999999999-38.25Q-89.39999999999999-36 -88.64999999999999-34.75Q-87.89999999999999-33.5 -86.3-32.6L-86.3-32.6Q-83.8-31.3 -80.3-30.35Q-76.8-29.4 -75.1-28.85Q-73.39999999999999-28.3 -70.85-27Q-68.3-25.7 -67-24.2L-67-24.2Q-63.49999999999999-20.5 -63.49999999999999-14.7L-63.49999999999999-14.7Q-63.49999999999999-7.2 -68.94999999999999-2.95Q-74.39999999999999 1.3 -82.8 1.3L-82.8 1.3Q-95 1.3 -101.19999999999999-1.8L-101.19999999999999-1.8L-101.19999999999999-15.7L-92.19999999999999-16.4L-92.19999999999999-11.6Q-92.19999999999999-7.2 -83.8-7.2Q-75.39999999999999-7.2 -75.39999999999999-13.3L-75.39999999999999-13.3Q-75.39999999999999-15.5 -76.85-16.9Q-78.3-18.3 -79.69999999999999-18.8Q-81.1-19.3 -83.05-19.8Q-85-20.3 -86.85-20.8Q-88.69999999999999-21.3 -90.85-22.15Q-93-23 -95.6-24.6L-95.6-24.6Q-100.69999999999999-27.9 -100.69999999999999-35.65Q-100.69999999999999-43.4 -95.19999999999999-47.6Q-89.69999999999999-51.8 -81.35-51.8Q-73-51.8 -64.8-47.8L-64.8-47.8L-64.8-35.8L-73.8-35.1L-73.8-39.3Q-73.8-41.8 -76.1-42.7ZM-51.09999999999999-11.2L-51.09999999999999-11.2L-51.09999999999999-59.9Q-51.09999999999999-61.5 -51.649999999999984-62.1Q-52.19999999999999-62.7 -53.59999999999999-62.8L-53.59999999999999-62.8L-57.09999999999999-63L-57.09999999999999-71.3L-39.29999999999998-71.3L-39.29999999999998-44.4Q-34.09999999999999-51.8 -24.69999999999999-51.8L-24.69999999999999-51.8Q-17.099999999999987-51.8 -12.949999999999989-47.45Q-8.799999999999983-43.1 -8.799999999999983-34.4L-8.799999999999983-34.4L-8.799999999999983-8.3L-3.099999999999987-8L-3.099999999999987 0L-26.899999999999984 0L-26.899999999999984-7.6L-23.599999999999987-7.9Q-22.099999999999987-8.1 -21.399999999999984-8.75Q-20.69999999999999-9.4 -20.69999999999999-11.2L-20.69999999999999-11.2L-20.69999999999999-31.8Q-20.69999999999999-37 -22.349999999999987-39.8Q-23.999999999999986-42.6 -28.749999999999986-42.6Q-33.499999999999986-42.6 -36.34999999999999-39.65Q-39.19999999999999-36.7 -39.19999999999999-32.5L-39.19999999999999-32.5L-39.19999999999999-8.3L-33.499999999999986-8L-33.499999999999986 0L-57.29999999999998 0L-57.29999999999998-7.6L-53.999999999999986-7.9Q-52.499999999999986-8.1 -51.79999999999998-8.75Q-51.09999999999999-9.4 -51.09999999999999-11.2ZM 41.30000000000002-11.2L 41.30000000000002-11.2L 41.30000000000002-56.6L 33.500000000000014-56.6Q 31.200000000000017-56.6  31.200000000000017-53.5L 31.200000000000017-53.5L 31.200000000000017-48.8L 21.000000000000018-49.5L 21.000000000000018-66.5L 73.30000000000001-66.5L 73.30000000000001-49.5L 63.10000000000002-48.8L 63.10000000000002-53.5Q 63.10000000000002-55.2  62.60000000000002-55.9Q 62.10000000000002-56.6  60.20000000000002-56.6L 60.20000000000002-56.6L 53.40000000000002-56.6L 53.40000000000002-8.8L 61.30000000000001-8.5L 61.30000000000001 0L 33.100000000000016 0L 33.100000000000016-8.1L 38.40000000000002-8.4Q 41.30000000000002-8.7  41.30000000000002-11.2ZM 84.30000000000001-11.2L 84.30000000000001-11.2L 84.30000000000001-38.9Q 84.30000000000001-40.5  83.75000000000001-41.15Q 83.20000000000002-41.8  81.80000000000001-41.9L 81.80000000000001-41.9L 77.60000000000001-42.2L 77.60000000000001-50.3L 94.50000000000001-50.3L 94.50000000000001-42.8Q 96.30000000000001-46.7  100.10000000000001-49.25Q 103.9-51.8  108.85000000000001-51.8Q 113.80000000000001-51.8  118.30000000000001-49.6L 118.30000000000001-49.6L 118.30000000000001-34.7L 109.00000000000001-34L 109.00000000000001-38.6Q 109.00000000000001-40.6  108.00000000000001-41.1L 108.00000000000001-41.1Q 106.9-41.6  105.30000000000001-41.6L 105.30000000000001-41.6Q 101.30000000000001-41.6  98.75000000000001-38.75Q 96.20000000000002-35.9  96.20000000000002-31.5L 96.20000000000002-31.5L 96.20000000000002-8.3L 104.9-7.9L 104.9 0L 78.10000000000001 0L 78.10000000000001-7.6L 81.4-7.9Q 82.9-8.1  83.60000000000001-8.75Q 84.30000000000001-9.4  84.30000000000001-11.2ZM 172.80000000000004-8.2L 176.30000000000004-7.9L 176.30000000000004 0L 160.10000000000005 0L 160.10000000000005-6.5Q 154.60000000000005 1.3  143.90000000000003 1.3L 143.90000000000003 1.3Q 128.40000000000003 1.3  128.40000000000003-16L 128.40000000000003-16L 128.40000000000003-39.1Q 128.40000000000003-41.8  125.90000000000005-41.9L 125.90000000000005-41.9L 122.70000000000005-42.1L 122.70000000000005-50.3L 140.30000000000004-50.3L 140.30000000000004-18.6Q 140.30000000000004-13.3  141.80000000000004-10.6Q 143.30000000000004-7.9  148.00000000000006-7.9Q 152.70000000000005-7.9  155.55000000000004-10.8Q 158.40000000000003-13.7  158.40000000000003-17.8L 158.40000000000003-17.8L 158.40000000000003-38.9Q 158.40000000000003-40.5  157.85000000000005-41.15Q 157.30000000000004-41.8  155.90000000000003-41.9L 155.90000000000003-41.9L 152.70000000000005-42.1L 152.70000000000005-50.3L 170.30000000000004-50.3L 170.30000000000004-11.1Q 170.30000000000004-9.5  170.80000000000004-8.95Q 171.30000000000004-8.4  172.80000000000004-8.2L 172.80000000000004-8.2ZM 190.50000000000006-60.9L 190.50000000000006-60.9L 197.00000000000006-60.9L 197.00000000000006-50.3L 210.30000000000007-50.3L 209.30000000000007-41.9L 197.00000000000006-41.9L 197.00000000000006-15.6Q 197.00000000000006-11.2  198.60000000000005-9.45Q 200.20000000000005-7.7  203.55000000000004-7.7Q 206.90000000000006-7.7  210.30000000000007-9.8L 210.30000000000007-9.8L 213.30000000000007-2.1Q 208.30000000000007 1.4  200.60000000000005 1.4L 200.60000000000005 1.4Q 196.10000000000005 1.4  193.00000000000006 0.25Q 189.90000000000006-0.9  188.40000000000006-2.3Q 186.90000000000006-3.7  186.10000000000005-6.4Q 185.30000000000004-9.1  185.20000000000005-10.65Q 185.10000000000005-12.2  185.10000000000005-15.2L 185.10000000000005-15.2L 185.10000000000005-41.9L 178.00000000000006-41.9L 179.00000000000006-49.2Q 183.70000000000005-49.6  186.10000000000005-52.55Q 188.50000000000006-55.5  190.50000000000006-60.9ZM 223.20000000000002-11.2L 223.20000000000002-11.2L 223.20000000000002-59.9Q 223.20000000000002-61.5  222.65-62.1Q 222.10000000000002-62.7  220.70000000000002-62.8L 220.70000000000002-62.8L 217.20000000000002-63L 217.20000000000002-71.3L 235-71.3L 235-44.4Q 240.20000000000002-51.8  249.60000000000002-51.8L 249.60000000000002-51.8Q 257.2-51.8  261.35-47.45Q 265.5-43.1  265.5-34.4L 265.5-34.4L 265.5-8.3L 271.2-8L 271.2 0L 247.4 0L 247.4-7.6L 250.70000000000002-7.9Q 252.20000000000002-8.1  252.9-8.75Q 253.60000000000002-9.4  253.60000000000002-11.2L 253.60000000000002-11.2L 253.60000000000002-31.8Q 253.60000000000002-37  251.95000000000002-39.8Q 250.3-42.6  245.55-42.6Q 240.8-42.6  237.95000000000002-39.65Q 235.10000000000002-36.7  235.10000000000002-32.5L 235.10000000000002-32.5L 235.10000000000002-8.3L 240.8-8L 240.8 0L 217 0L 217-7.6L 220.3-7.9Q 221.8-8.1  222.5-8.75Q 223.20000000000002-9.4  223.20000000000002-11.2Z" data-textpath="Polish Truth" data-text-anchor="middle" data-font-size="100" data-letterspacing="0" data-side="left" data-offset="0" data-dx="0" data-dy="101.85000000000001" data-href="" data-font="Bree Serif" data-font-src="/Content/clientfonts/breeserif.woff" data-font-scale="contain" transform="translate(0,101.85000000000001)" data-xmlspace="preserve" fill="url('#linearGradientSkj7q994z3j')"></path><rect x="0" y="0" width="0" height="0"></rect></g><g><rect x="0" y="0" width="0" height="0" fill="rgba(255,136,0,0.1)" stroke="#ff8800" style="stroke-width: 1;"></rect></g><g class="selector-part"><rect x="0" y="0" width="0" height="0" fill="rgba(168,202,236,0.5)" stroke="#3399ff" style="stroke-width: 1;"></rect></g><g class="selector-part" transform="matrix(1,0,0,1,513,275)"><rect x="0" y="0" width="0" height="0" fill="none" stroke="#2390bb" style="stroke-width: 2;"></rect><g transform="matrix(0.5,0,0,0.5,0,0)"><svg version="1.1" id="Calque_1" xmlns="http://www.w3.org/2000/svg" xmlns:xlink="http://www.w3.org/1999/xlink" x="235.5" y="-71px" width="28.94px" height="30px" viewBox="0 -15 28.94 30" enable-background="new 0 -15 28.94 30" xml:space="preserve" style="cursor: pointer;">
<g>
	<path fill="rgba(0,0,0,0)" d="M23.355-9.979c-0.352-0.263-0.712-0.511-1.084-0.739L20.34-7.486c0.317,0.195,0.629,0.414,0.929,0.646
		L23.355-9.979z" style=""></path>
	<path fill="rgba(0,0,0,0)" d="M28.894,0.081L25.092-0.13c0.292,2.317-0.217,4.718-1.539,6.756l-0.037-0.021
		c-0.376,0.583-0.821,1.137-1.335,1.648c-3.808,3.809-9.902,3.942-13.871,0.396C8.282,8.623,8.255,8.602,8.227,8.576
		C8.143,8.498,8.059,8.421,7.976,8.339c-0.052-0.051-0.104-0.1-0.153-0.152C7.8,8.163,7.776,8.14,7.753,8.115
		c-0.084-0.091-0.167-0.18-0.25-0.271v0.002C4.312,4.293,4.087-0.98,6.821-4.782l4.123,4.124l3.401-14.306L0.037-11.566l4.102,4.098
		C-0.064-2.14,0.193,5.554,4.917,10.587l0,0c0.012,0.016,0.023,0.025,0.033,0.037c0.091,0.098,0.181,0.199,0.278,0.293
		c0.021,0.023,0.047,0.043,0.07,0.068c0.075,0.074,0.148,0.146,0.225,0.22c0.051,0.045,0.099,0.086,0.15,0.133
		c0.053,0.047,0.104,0.094,0.156,0.14c0.144,0.13,0.291,0.257,0.439,0.375c0.01,0.012,0.018,0.016,0.027,0.023
		c5.574,4.563,13.804,4.115,18.842-1.194C27.94,7.722,29.185,3.851,28.894,0.081z" style=""></path>
	<path fill="rgba(0,0,0,0)" d="M24.122-3.353l3.544-1.319c-0.426-0.932-0.962-1.826-1.611-2.662L22.88-5.276
		C23.373-4.675,23.79-4.027,24.122-3.353z" style=""></path>
</g>
<desc>Created with Snap</desc><defs></defs><circle cx="14.5" cy="0" r="15" style="" fill="rgba(0,0,0,0)"></circle></svg></g><rect x="125" y="-21" width="0" height="21" fill="rgba(255,255,255,0)" stroke="#2390bb" style="stroke-width: 1; cursor: pointer;"></rect><circle cx="250" cy="334" r="0" fill="#ffffff" stroke="#2390bb" style="stroke-width: 2; cursor: se-resize;"></circle><circle cx="0" cy="334" r="0" fill="#ffffff" stroke="#2390bb" style="stroke-width: 2; cursor: sw-resize;"></circle><circle cx="250" cy="0" r="0" fill="#ffffff" stroke="#2390bb" style="stroke-width: 2; cursor: ne-resize;"></circle><circle cx="0" cy="0" r="0" fill="#ffffff" stroke="#2390bb" style="stroke-width: 2; cursor: nw-resize;"></circle><circle cx="125" cy="334" r="0" fill="#ffffff" stroke="#2390bb" style="stroke-width: 2; cursor: s-resize;"></circle><circle cx="125" cy="0" r="0" fill="#ffffff" stroke="#2390bb" style="stroke-width: 2; cursor: n-resize;"></circle><circle cx="0" cy="167" r="0" fill="#ffffff" stroke="#2390bb" style="stroke-width: 2; cursor: w-resize;"></circle><circle cx="250" cy="167" r="0" fill="#ffffff" stroke="#2390bb" style="stroke-width: 2; cursor: e-resize;"></circle><path stroke="#ff0000" fill="none" style="stroke-width: 3;"></path><line x1="0" x2="0" y1="0" y2="0" fill="rgba(255,255,255,0)" stroke="#2390bb" style="stroke-width: 1;"></line><line x1="0" x2="0" y1="0" y2="0" fill="rgba(255,255,255,0)" stroke="#2390bb" style="stroke-width: 1;"></line><circle cx="0" cy="0" r="0" fill="#ff0000" stroke="#2390bb" style="stroke-width: 2; cursor: pointer;"></circle><circle cx="0" cy="0" r="0" fill="#ffa500" stroke="#2390bb" style="stroke-width: 2; cursor: pointer;"></circle><circle cx="0" cy="0" r="0" fill="#ffa500" stroke="#2390bb" style="stroke-width: 2; cursor: pointer;"></circle><circle cx="0" cy="0" r="0" fill="#ff0000" stroke="#2390bb" style="stroke-width: 2; cursor: pointer;"></circle><g style="cursor: pointer; visibility: hidden; opacity: 0;" transform="matrix(1,0,0,1,-50,-15)"><rect x="0" y="0" width="30" height="30" fill="#2390bb" rx="5" ry="5" style=""></rect><rect x="6" y="6" width="18" height="4" style="" fill="#ffffff"></rect><rect x="6" y="13" width="18" height="4" fill="#ffffff" style=""></rect><rect x="6" y="20" width="18" height="4" fill="#ffffff" style=""></rect></g></g></svg>