<svg version="1.1" id="Layer_1" xmlns="http://www.w3.org/2000/svg" xmlns:xlink="http://www.w3.org/1999/xlink" x="0px" y="0px"
	 viewBox="0 0 511.3 511.6" style="enable-background:new 0 0 511.3 511.6;" xml:space="preserve">

	<path d="M350.1,407.4c-104.6,70-233.1,40.4-300.7-43.7c-70.6-87.8-63.8-211.7,8.9-291c77.9-84.9,204.2-95.5,293.4-31.9
		c49.5,35.3,80.4,83,91.1,143c10.6,59.7-1.7,114.9-35.7,166.5c1.7,1.2,3.6,2.3,5.2,3.8c28.8,28.7,57.6,57.4,86.2,86.2
		c21.2,21.4,14.9,56.1-12.1,67.7c-16.2,6.9-33.4,3.3-46.7-10c-28.4-28.4-56.8-56.8-85.1-85.2C353,411.3,351.7,409.4,350.1,407.4z
		 M227.7,75.1c-79.2-2.4-150,58.8-152.6,144.2c-2.4,77.6,56.6,148.3,142,152.2c80.3,3.6,150.4-57.2,154.3-141.8
		C375.1,148.3,312.3,78.1,227.7,75.1z"/>

</svg>
