<?xml version="1.0" encoding="utf-8"?>
<!-- Generator: Adobe Illustrator 22.1.0, SVG Export Plug-In . SVG Version: 6.00 Build 0)  -->
<svg version="1.1" id="Layer_1" xmlns="http://www.w3.org/2000/svg" xmlns:xlink="http://www.w3.org/1999/xlink" x="0px" y="0px"
	 viewBox="0 0 409.8 410" style="enable-background:new 0 0 409.8 410;" xml:space="preserve">
<style type="text/css">
	.st0{fill:#16B8EA;}
	.st1{fill:#64B85A;}
	.st2{fill:#14B7EA;}
	.st3{fill:#65B95B;}
	.st4{fill:#17B8EA;}
	.st5{fill:#66BA5D;}
	.st6{fill:#69BB5F;}
</style>
<g>
	<path d="M204.9,409.6c-49.8,0-99.7-1.2-149.5,0.4C17.8,411.2-0.1,384.5,0,353.9C0.4,269,0.1,184.2,0.2,99.4C0.2,80.9,0,62.4,1,44
		C2.5,18.7,23.1,0,48.3,0c38,0,76,0,114,0c8.7,0,15.6,3.4,19.6,11.3c3.6,7.1,3.2,14.2-1.3,20.7c-4.2,6-10.1,8.8-17.5,8.8
		c-36,0-72,0-108,0c-9,0-14.2,5.1-14.2,14.2c0,99.8,0,199.6,0,299.4c0,9.3,5.2,14.3,14.7,14.3c99.5,0,199,0,298.4,0
		c9.9,0,14.8-5,14.8-15.1c0-35.5,0-71,0-106.5c0-12.5,8.2-21.4,19.9-21.6c11.9-0.2,20.8,8.7,20.9,21.2c0.1,36.8,0.2,73.6,0,110.5
		c-0.1,17-5.7,31.9-19.5,42.9c-8.3,6.6-17.8,9.4-28.3,9.4C309.6,409.6,257.3,409.6,204.9,409.6z"/>
	<path d="M335.8,40.9c-11.9,0-23.9,0-35.8,0c-3.8,0-7.7,0-11.5,0c-12.8,0-21.8-8.3-21.9-20.2c-0.1-12,9-20.6,22-20.7
		c23.5-0.1,47,0,70.5,0c9.3,0,18.7,0,28,0c13.9,0.1,22.6,8.6,22.6,22.3c0.1,33,0.1,66,0,99c0,11.5-7.5,20.5-17.4,21.6
		c-11.2,1.2-20.3-4.9-22.9-15.5c-0.5-1.9-0.5-4-0.5-5.9c0-15.8,0-31.6,0-48.7c-2.1,2-3.5,3.3-4.8,4.6
		c-47.7,47.7-95.5,95.4-143.1,143.2c-6.7,6.7-14.3,10.2-23.8,7.4c-15.6-4.6-21.3-23.1-11-35.6c1.4-1.7,3-3.2,4.5-4.7
		c47.2-47.3,94.5-94.5,141.7-141.7c1.3-1.3,2.7-2.4,4.1-3.6C336.2,41.8,336,41.3,335.8,40.9z"/>
</g>
</svg>
