<?xml version="1.0" encoding="utf-8"?>
<!-- Generator: Adobe Illustrator 22.1.0, SVG Export Plug-In . SVG Version: 6.00 Build 0)  -->
<svg version="1.1" id="Layer_1" xmlns="http://www.w3.org/2000/svg" xmlns:xlink="http://www.w3.org/1999/xlink" x="0px" y="0px"
	 viewBox="0 0 498.1 480" style="enable-background:new 0 0 498.1 480;" xml:space="preserve">
<style type="text/css">
	.st0{fill:#16B8EA;}
	.st1{fill:#64B85A;}
	.st2{fill:#14B7EA;}
	.st3{fill:#65B95B;}
	.st4{fill:#17B8EA;}
	.st5{fill:#66BA5D;}
	.st6{fill:#69BB5F;}
</style>
<g>
	<path class="st0" d="M498.1,136c-2.1,4.8-1.9,9.9-2.9,14.9c-10.6,54.5-58.7,96.7-114.2,100.2c-67.1,4.3-124.5-42.9-133.6-109.8
		C238.5,75.5,287,11.3,352.8,1.9c3.1-0.4,6.3-0.8,9.4-1.3c6.3-0.5,12.7,0.6,19-0.7c0.7,0,1.3,0,2,0c0.8,1.6,2.3,1,3.5,1.2
		c55.7,7.5,97.8,46.9,109,101.9c0.9,4.6,0.6,9.5,2.5,14C498.1,123.3,498.1,129.7,498.1,136z M372.4,220
		c52.2-0.1,93.9-42.1,93.8-94.3c-0.1-52.2-42.1-93.9-94.3-93.8c-52.2,0.1-93.9,42-93.8,94.2C278.2,178.4,320.2,220.1,372.4,220z"/>
	<path class="st0" d="M0,205.7C-1.3,157.1,36.8,107,93.8,97.2c62-10.7,122.4,34.4,129.5,96.9c3.9,34.7-5.1,66-25.1,94.2
		c-27.5,38.7-55.2,77.2-82.8,115.8c-3.3,4.6-3.3,4.6-6.5,0.2c-28.6-39.9-57.4-79.7-85.6-119.9C7.6,261.9,0,236.4,0,205.7z
		 M192.1,207c-0.2-1.9-0.5-5.5-0.9-9.2c-3.9-34.7-32.9-65.2-71.6-69.5c-33-3.6-68.7,17-81.3,49.4c-12.2,31.4-6.5,61.1,11.8,88.2
		c19,28.3,39.5,55.6,59.2,83.5c2.2,3.1,3.4,3.1,5.6,0c19.3-27.3,38.8-54.5,58.2-81.7C185.6,250.1,191.5,230.3,192.1,207z"/>
	<path class="st1" d="M305.2,480c-43.2,0-86.3,0-129.5,0c-8.5,0-15.2-5.8-16.3-13.9c-1.1-8,4.1-15.7,12.1-17.7
		c1.9-0.5,4-0.5,5.9-0.5c82,0,164,0,246,0c2.7,0,5.3,0.1,8,0c9-0.3,15.9-7.2,15.9-16c0-8.7-6.9-15.8-15.9-15.8
		c-25.2-0.1-50.3-0.1-75.5-0.1c-28.2,0-56.3,0-84.5,0c-26.7,0-48.2-21.7-48-48.5c0.1-26.3,21.9-47.7,48.4-47.7
		c20.8,0.1,41.7,0,62.5,0c10.4,0,17.4,6.7,17.3,16.4c-0.1,9.3-7.3,15.7-17.5,15.7c-19.8,0-39.7,0-59.5,0c-11.5,0-19,6.4-18.9,16
		c0.1,9.7,7.5,15.8,19.1,15.8c52.2,0,104.3,0,156.5,0c27.1,0,48.4,21.2,48.3,48c-0.1,27-21.2,48.1-48.2,48.1
		C389.2,480,347.2,480,305.2,480z"/>
	<path class="st1" d="M127.4,464.2c-0.1,9.2-7.2,16-16.4,15.8c-9-0.2-16-7.6-15.7-16.6c0.3-8.8,7.4-15.6,16.3-15.5
		C120.7,447.9,127.5,455,127.4,464.2z"/>
	<path class="st1" d="M399.5,352c-9,0.1-16.3-7.1-16.2-16.1c0-8.9,6.9-15.8,15.8-16c9.3-0.1,16.4,6.6,16.3,15.7
		C415.4,345.1,408.6,352,399.5,352z"/>
	<path class="st0" d="M387.2,97c0,6.7,0.1,13.3-0.1,20c-0.1,2.5,0.7,4.3,2.5,6.1c7.8,7.7,15.7,15.3,23.3,23.3
		c8.7,9.3,5.8,20.8-5.8,25c-5.3,1.9-9.8-0.2-13.3-3.5c-11.1-10.6-21.8-21.4-32.5-32.4c-3.2-3.3-4.4-7.8-4.3-12.4
		c0-15.5-0.1-30.9,0-46.4c0-5.7,1.6-11,6.5-14.4c4.4-3.2,9.2-4.2,14.5-1.6c6.1,3,8.6,8.2,9,14.5C387.5,82.3,387.2,89.6,387.2,97
		C387.2,97,387.2,97,387.2,97z"/>
	<path class="st0" d="M128.3,204.9c0,9-7.1,16.2-16.1,16.1c-9,0-16.1-7.2-16-16.2c0.1-8.9,6.8-15.7,15.8-15.8
		C121.1,188.9,128.2,195.8,128.3,204.9z"/>
</g>
</svg>
