<?xml version="1.0" encoding="utf-8"?>
<!-- Generator: Adobe Illustrator 22.1.0, SVG Export Plug-In . SVG Version: 6.00 Build 0)  -->
<svg version="1.1"  xmlns="http://www.w3.org/2000/svg" xmlns:xlink="http://www.w3.org/1999/xlink"
	 viewBox="0 0 511.5 512.5">

	<path d="M279.8,53.3c0,17.6,0,35.2,0,52.9c0,34.8,0,69.7,0,104.5c0,16.2-12.9,29.6-28.3,29.5c-15.1-0.1-27.9-13.5-27.9-29.4
		c0-60.3,0-120.6,0-181c0-9.4-4.4-13.9-12.7-13.5c-7.4,0.4-11.1,4.6-11.1,13c0,28.2,0,56.3,0,84.5c0,50.5,0,101,0,151.5
		c0,2,0,4,0,6.3c4,0.5,7.8,0.8,11.5,1.4c38.7,5.7,68.5,40.1,68.5,79.1c0,45.8,0,91.7,0,137.5c0,2,0,3.9,0,5.6
		c0.8,0.4,1.1,0.7,1.4,0.7c13.2,0.7,14.4-0.4,14.4-13.5c0-8,0-16,0-24c0-7.2-0.7-8.2-7.7-10.6c0-5,0-10.1,0-15.1
		c10.7-1.4,23.4,10.1,23.8,22.1c0.4,11.5,0.4,23,0,34.5c-0.3,11.2-11.1,22.2-22.2,22.8c-8.3,0.5-16.6,0.1-25.9,0.1c0-2.1,0-4,0-5.9
		c0-51,0-102,0-153c0-35-22.7-60.7-57.4-64.7c-1.9-0.2-3.9-0.2-6.5-0.3c0,9.1,0,17.7,0,26.3c0,2,0.2,4,0,6c-0.7,5.7,0.7,9.4,6.1,13
		c9.9,6.5,12.5,18.5,7.6,28.3c-5.3,10.7-16.8,16.4-27.2,13.7c-10.7-2.8-19.2-13.7-18.6-24.4c0.5-8.8,5.3-15.3,12.7-19.7
		c2.2-1.3,3.4-2.6,3.3-5.4c-0.2-11.3-0.1-22.7-0.1-34c0-1.1-0.2-2.2-0.4-3.8c-21.6,0.8-39.3,8.7-51.9,26.5
		c-8.5,12-11.6,25.6-11.5,40.1c0.1,50.3,0,100.6,0,151c0,1.9,0,3.9,0,6.2c-9.5,0-18.5,0.8-27.4-0.2c-11.7-1.3-20.8-12.7-20.8-24.5
		c0-10.5-0.1-21,0.1-31.5c0.1-12.2,11.4-23.4,24.1-23.5c0,2.6,0,5.1,0,7.7c0,2.5,0,5,0,7.8c-7,1-8.3,5.6-8.1,11.6
		c0.3,8.5,0.1,17,0.1,25.5c0,9.5,1.9,11.3,11.5,11.2c1.2,0,2.3-0.1,4.3-0.2c0-2.1,0-4.2,0-6.3c0-45.7-0.1-91.3,0-137
		c0.1-42.6,33.5-77.8,76-80.4c1.1-0.1,2.3-0.2,4-0.3c0-2.3,0-4.4,0-6.6c0-78.5,0-157,0-235.5c0-16.3,12.7-29.7,28.1-29.7
		c15.4,0,28,13.5,28,29.8c0,60.2,0,120.3,0,180.5c0,10.9,6.8,16.1,16.4,12.9c5.1-1.7,7.4-5.2,7.4-12.2c0-24,0-48,0-72
		c0-44.7,0-89.3,0-134c0-1.5,0.2-2.9,0.3-4.9c8.9,0,17.5-0.1,26.1,0.1c1.2,0,2.6,1.3,3.6,2.3c32,31.9,63.9,63.8,95.7,95.9
		c1.7,1.7,2.4,5,2.4,7.6c0.1,54.7,0.1,109.3,0.1,164c0,46.3,0,92.7,0.1,139c0,2.2,1.1,5.2,2.7,6.3c11.3,8.1,15.3,18.7,13.2,32.3
		c-0.8,5.2-0.1,10.6-0.1,15.6c0.8,0.4,1.1,0.7,1.3,0.7c8-1.4,12.8,3.4,18.5,8.1c10.1,8.3,14.3,18,12.3,30.8
		c-0.5,2.9-0.1,5.9-0.1,9.2c-37.5,0-74.4,0-112,0c0-8.9,0-17.8,0.1-26.7c0-0.7,0.7-1.5,1.3-2c5.9-5.9,11.7-11.9,17.7-17.6
		c1.1-1.1,3.3-1.3,5-1.5c2.3-0.2,4.6-0.1,7.8-0.1c0-6.9,0.7-13.6-0.1-20c-1.3-10.8,1.4-19.5,10.6-25.8c5-3.4,5.6-8.1,5.6-13.8
		c-0.1-97-0.1-194,0-291c0-4-1-6.8-3.9-9.6c-28.3-28.1-56.4-56.3-84.6-84.4c-1.7-1.7-4.1-2.6-6.8-4.3c-1.2,8.4-0.7,14,5.1,19.6
		c25.6,24.8,50.6,50.3,75.8,75.5c1.3,1.3,3,2.1,4.9,3.4c-4.9,4.4-8.7,7.8-12.5,11.3c-23.7-23.9-48-48.3-72.2-72.7
		C281,52.5,280.4,52.9,279.8,53.3z M391.6,480.5c0-13.6-0.5-26.1,0.2-38.6c0.4-7.1-3.7-10.3-8.1-13.7c-6.2,3.8-8.5,8.8-8.1,16
		c0.6,11.7,0.2,23.5,0.2,36.1c-7.2,0-13.9-0.5-20.4,0.2c-4,0.5-11.5,11.6-11.1,15c26.3,0,52.7,0,80,0
		C418.4,479.2,405.7,478.7,391.6,480.5z M191.4,344.1c-4.8,0.1-7.6,3-7.6,7.9c0.1,5.1,3.1,8,8.2,7.8c4.9-0.2,7.6-3,7.6-8
		C199.6,346.9,196.6,344,191.4,344.1z"/>
	<path d="M135.8,511.7c0-5.3,0-10.1,0-15.6c5.2,0,10.2,0,15.7,0c0-16.3,0-31.9,0-47.8c26.9,0,53.3,0,80.1,0c0,15.7,0,31.3,0,47.4
		c5.4,0,10.3,0,15.7,0c0,5.5,0,10.6,0,16C210.4,511.7,173.4,511.7,135.8,511.7z M168.1,464.4c0,10.5,0,20.7,0,31.2
		c15.8,0,31.4,0,47.2,0c0-10.5,0-20.7,0-31.2C199.5,464.4,183.9,464.4,168.1,464.4z"/>
	<path d="M311.8,232.2c5.3,0,10.3,0,15.7,0c1.5,19.4,11.8,30.4,31.9,31.9c0,5.2,0,10.2,0,15.7c-19.3,1.5-30.3,11.8-31.8,31.9
		c-5.1,0-10.1,0-15.7,0c-1.4-19.5-12.1-30.4-32-31.8c0-5.2,0-10.2,0-15.6C299.3,262.7,310.3,252.4,311.8,232.2z M319.7,283.1
		c3.6-3.5,7.9-7.7,11-10.8c-3.6-3.8-7.7-8.2-10.7-11.4c-3.8,3.6-8.1,7.6-11.7,11C311.9,275.6,316.2,279.7,319.7,283.1z"/>
	<path d="M159.6,200.2c0,5.4,0,10.3,0,15.7c-8.5,0.8-16.5,2.8-22.7,9c-6.3,6.2-8.6,14-9.2,22.9c-5.2,0-10.3,0-15.8,0
		c-1.5-19.4-11.9-30.3-31.9-31.8c0-5.2,0-10.2,0-15.7c19.4-1.5,30.3-11.9,31.8-31.9c5.1,0,10.2,0,15.7,0
		C129,187.8,139.5,198.6,159.6,200.2z M119.5,219.3c3.8-3.7,8.1-8,11.4-11.3c-3.6-3.7-7.9-7.9-10.6-10.7c-3.9,3.6-8.3,7.6-11.8,10.8
		C112,211.7,116,215.8,119.5,219.3z"/>
	<path d="M55.6,499.9c0,4.3,0,8.3,0,12.6c-18.6,0-36.9,0-55.6,0c0-4.2,0-8.2,0-12.6C18.3,499.9,36.7,499.9,55.6,499.9z"/>
	<path d="M511.5,496.3c0,5.3,0,10.2,0,15.5c-18.5,0-36.7,0-55.4,0c0-5,0-10,0-15.5C474.3,496.3,492.7,496.3,511.5,496.3z"/>
	<path d="M167.4,423.8c-5.4,0-10.3,0-15.5,0c0-5.2,0-10.1,0-15.5c5,0,10,0,15.5,0C167.4,413.3,167.4,418.4,167.4,423.8z"/>
	<path d="M199.4,424c-5.3,0-10.1,0-15.3,0c0-5.2,0-10.2,0-15.7c5,0,10,0,15.3,0C199.4,413.6,199.4,418.7,199.4,424z"/>
	<path d="M231.3,424c-5.3,0-10.1,0-15.3,0c0-5.2,0-10.2,0-15.6c5,0,10,0,15.3,0C231.3,413.6,231.3,418.7,231.3,424z"/>

</svg>
