<?xml version="1.0" encoding="utf-8"?>
<!-- Generator: Adobe Illustrator 22.1.0, SVG Export Plug-In . SVG Version: 6.00 Build 0)  -->
<svg version="1.1" id="Layer_1" xmlns="http://www.w3.org/2000/svg" xmlns:xlink="http://www.w3.org/1999/xlink" x="0px" y="0px"
	 viewBox="0 0 511.5 479.4" style="enable-background:new 0 0 511.5 479.4;" xml:space="preserve">
<style type="text/css">
	.st0{fill:#16B8EA;}
	.st1{fill:#64B85A;}
	.st2{fill:#14B7EA;}
	.st3{fill:#65B95B;}
	.st4{fill:#17B8EA;}
	.st5{fill:#66BA5D;}
	.st6{fill:#69BB5F;}
</style>
<g>
	<path d="M511.2,463.9c0,5.5,0,10.3,0,15.5c-170.3,0-340.5,0-511.1,0c0-4.7,0-9.7,0-15.2c98.7,0,197.6,0,295.6,0
		c0-58.3-0.2-116.1,0.1-173.8c0.1-14.9,6.4-27.6,17-38.2c30.5-30.5,60.8-61.2,91.3-91.8c2.6-2.6,3.6-5.1,3.6-8.7
		c-0.2-13,0-26-0.1-39c0-3.1,0.5-5.5,3.4-7.1c10.3-5.7,15.2-14,12.8-26.1c-0.5-2.4-0.1-4.9-0.1-9.2c-3.5,2-6.3,2.9-8.2,4.8
		c-24.3,24.1-48.4,48.2-72.5,72.5c-3.1,3.1-6.1,4.6-10.4,4.3c-4.1-0.3-8.3-0.1-12.7-0.1c0-5.4,0-10.3,0-15.1c0.4-0.2,0.7-0.5,1-0.5
		c8.9,1.5,14.6-2.9,20.5-9c17.7-18.4,35.9-36.2,54.8-55c-36.6,0-72.3,0-108.2,0c0-16.2,0-31.8,0-48c10.3,0,20.7,0,30.8,0
		c0.5-0.9,0.8-1.2,0.7-1.4c-2.3-10.7,5.8-15.7,12-21.7c0.9-0.9,2.7-1,4.1-1c42.8,0,85.7-0.2,128.5,0c24.6,0.1,46.1,21.3,47.2,46
		c0.4,8.3,0.1,16.6,0.1,25.6c-4.9,0-9.4,0-14,0c-8.1,0-9.9,1.8-9.9,9.9c0,121.1,0,242.3,0,363.4c0,6.1,0,12.2,0,18.7
		C494.4,463.9,502.5,463.9,511.2,463.9z M471.7,103.8c-7,0-13.2,0.6-19.3-0.1c-10.4-1.2-19,1.6-25.7,9.5c-1.5,1.8-3.1,4.3-3.1,6.6
		c-0.3,13.2,0,26.3-0.3,39.5c0,2.2-1.1,4.9-2.6,6.5c-32.4,32.9-64.9,65.6-97.5,98.3c-7.8,7.9-11.8,16.9-11.8,28.1
		c0.1,54,0,108,0.1,161.9c0,8.4,1.7,10.1,10.3,10.1c46.5,0,93,0,139.4,0c8.8,0,10.5-1.7,10.5-10.4c0-114.6,0-229.2,0-343.9
		C471.7,107.9,471.7,106.2,471.7,103.8z M495.7,55.6c0-2.6,0-4.9,0-7.2c-0.1-20.1-12.5-32.6-32.7-32.6c-23.8,0-47.6,0-71.4,0
		c-16.5,0-33,0.1-49.4,0c-3.5,0-6.4,1.2-6.5,4.6c-0.3,11.7-0.1,23.5-0.1,35.8c40.3,0,80,0,119.6,0c0,5.5,0,10.4,0,15.9
		c-5.4,0-10.4,0-15.2,0c0,5.7,0,10.7,0,15.6c10.8,0,21.2,0,31.6,0C473,66.5,477.9,59.9,495.7,55.6z M303.6,55.7c5.6,0,10.6,0,15.8,0
		c0-5.4,0-10.4,0-15.5c-5.4,0-10.6,0-15.8,0C303.6,45.5,303.6,50.5,303.6,55.7z"/>
	<path d="M319.2,88.3c0,5.2,0,10,0,15.4c-31.9,0-63.6,0-95.6,0c0,93.6,0,186.7,0,280.2c15.8,0,31.4,0,47.4,0c0,5.3,0,10.2,0,15.5
		c-79.5,0-159,0-239,0c0-15.4,0-31,0-47c4.7,0,9.6,0,15.1,0c0,10.2,0,20.6,0,31.3c53.7,0,106.7,0,160.1,0c0-93.1,0-186.1,0-279.5
		c-53,0-106.1,0-159.7,0c0,45,0,90,0,135.3c-5.5,0-10.4,0-15.6,0c0-50.4,0-100.6,0-151.1C127.7,88.3,223.2,88.3,319.2,88.3z"/>
	<path d="M175.5,351.7c0-32,0-63.6,0-95.8c-7.8,0-15.6,0-23.5,0c0-5.5,0-10.4,0-15.7c7.8,0,15.4,0,23.3,0c0-34.8,0-69.2,0-104
		c-31.6,0-63.3,0-95.6,0c0,44.9,0,89.9,0,135.3c-5.5,0-10.4,0-15.6,0c0-50.3,0-100.5,0-151c42.2,0,84.4,0,127,0
		c0,82.2,0,164.4,0,247c-42.1,0-84.3,0-127,0c0-15.4,0-30.9,0-46.9c4.7,0,9.6,0,15.1,0c0,10.1,0,20.5,0,31.2
		C111.5,351.7,143.3,351.7,175.5,351.7z"/>
	<path d="M239.9,367.5c0-82.4,0-164.6,0-247.2c21,0,41.9,0,63.2,0c0,5,0,9.9,0,15.4c-15.7,0-31.4,0-47.4,0c0,35,0,69.4,0,104.2
		c7.8,0,15.4,0,23.4,0c0,5.3,0,10.2,0,15.7c-7.6,0-15.3,0-23.3,0c0,32.3,0,64,0,96.2c5,0,9.9,0,15.3,0c0,5.4,0,10.5,0,15.7
		C260.7,367.5,250.4,367.5,239.9,367.5z"/>
	<path d="M47.2,335.6c-5.3,0-10.1,0-15.3,0c-0.5-8.8-2.8-16.8-9.1-23c-6.2-6.2-14-8.6-22.8-9c0-5.1,0-10,0-15.3
		c8.7-0.5,16.7-2.8,22.9-9.2c6.1-6.2,8.7-14,8.9-22.8c5.1,0,10.1,0,15.3,0c0.5,8.7,2.8,16.7,9.2,23c6.2,6.2,14,8.6,22.8,9
		c0,5.1,0,10,0,15.3c-8.7,0.5-16.7,2.8-23,9.1C50,318.9,47.6,326.7,47.2,335.6z M51.2,296c-3.6-3.8-8-8.5-11.3-12
		c-4.1,3.9-8.7,8.3-12.3,11.7c3.8,4,8.3,8.6,11.8,12.3C43.2,304.1,47.6,299.6,51.2,296z"/>
	<path d="M455,447.5c-42.3,0-84.5,0-127.3,0c0-1.8,0-3.5,0-5.1c0-49.3,0-98.6,0-148c0-8.4,3-15.3,9.1-21.3
		c23.5-23.2,46.8-46.6,70-70c2.3-2.3,4.6-3.3,7.8-3.2c13.3,0.2,26.7,0.1,40.4,0.1C455,282.5,455,364.9,455,447.5z M439.3,431.8
		c0-72.3,0-144,0-216c-6.1,0-12,0.2-17.7-0.1c-3.8-0.2-6.5,1-9.2,3.7c-21.7,21.9-43.5,43.7-65.4,65.4c-2.6,2.5-3.7,5-3.7,8.7
		c0.1,44.3,0.1,88.6,0.1,133c0,1.8,0,3.5,0,5.4C375.8,431.8,407.4,431.8,439.3,431.8z"/>
</g>
</svg>
